<?xml version="1.0" encoding="UTF-8" standalone="no"?>
<svg
   xmlns:dc="http://purl.org/dc/elements/1.1/"
   xmlns:cc="http://creativecommons.org/ns#"
   xmlns:rdf="http://www.w3.org/1999/02/22-rdf-syntax-ns#"
   xmlns:svg="http://www.w3.org/2000/svg"
   xmlns="http://www.w3.org/2000/svg"
   xmlns:sodipodi="http://sodipodi.sourceforge.net/DTD/sodipodi-0.dtd"
   xmlns:inkscape="http://www.inkscape.org/namespaces/inkscape"
   width="100"
   height="100"
   viewBox="0 0 26.458333 26.458333"
   version="1.1"
   id="svg8"
   inkscape:version="1.0.2 (e86c870879, 2021-01-15, custom)"
   sodipodi:docname="her.svg">
  <defs
     id="defs2">
    <inkscape:path-effect
       effect="bspline"
       id="path-effect1743"
       is_visible="true"
       lpeversion="1"
       weight="33.333333"
       steps="2"
       helper_size="0"
       apply_no_weight="true"
       apply_with_weight="true"
       only_selected="false" />
    <inkscape:path-effect
       effect="bspline"
       id="path-effect1741"
       is_visible="true"
       lpeversion="1"
       weight="33.333333"
       steps="2"
       helper_size="0"
       apply_no_weight="true"
       apply_with_weight="true"
       only_selected="false" />
    <inkscape:path-effect
       effect="bspline"
       id="path-effect1626"
       is_visible="true"
       lpeversion="1"
       weight="33.333333"
       steps="2"
       helper_size="0"
       apply_no_weight="true"
       apply_with_weight="true"
       only_selected="false" />
    <inkscape:path-effect
       effect="bspline"
       id="path-effect1624"
       is_visible="true"
       lpeversion="1"
       weight="33.333333"
       steps="2"
       helper_size="0"
       apply_no_weight="true"
       apply_with_weight="true"
       only_selected="false" />
    <inkscape:path-effect
       effect="bspline"
       id="path-effect1471"
       is_visible="true"
       lpeversion="1"
       weight="33.333333"
       steps="2"
       helper_size="0"
       apply_no_weight="true"
       apply_with_weight="true"
       only_selected="false" />
    <inkscape:path-effect
       effect="bspline"
       id="path-effect1439"
       is_visible="true"
       lpeversion="1"
       weight="33.333333"
       steps="2"
       helper_size="0"
       apply_no_weight="true"
       apply_with_weight="true"
       only_selected="false" />
    <inkscape:path-effect
       effect="bspline"
       id="path-effect1308"
       is_visible="true"
       lpeversion="1"
       weight="33.333333"
       steps="2"
       helper_size="0"
       apply_no_weight="true"
       apply_with_weight="true"
       only_selected="false" />
    <inkscape:path-effect
       effect="bspline"
       id="path-effect1218"
       is_visible="true"
       lpeversion="1"
       weight="33.333333"
       steps="2"
       helper_size="0"
       apply_no_weight="true"
       apply_with_weight="true"
       only_selected="false" />
    <inkscape:path-effect
       effect="spiro"
       id="path-effect1116"
       is_visible="true"
       lpeversion="1" />
    <inkscape:path-effect
       effect="spiro"
       id="path-effect1091"
       is_visible="true"
       lpeversion="1" />
    <inkscape:path-effect
       effect="bspline"
       id="path-effect1075"
       is_visible="true"
       lpeversion="1"
       weight="33.333333"
       steps="2"
       helper_size="0"
       apply_no_weight="true"
       apply_with_weight="true"
       only_selected="false" />
    <inkscape:path-effect
       effect="spiro"
       id="path-effect1063"
       is_visible="true"
       lpeversion="1" />
  </defs>
  <sodipodi:namedview
     id="base"
     pagecolor="#ffffff"
     bordercolor="#666666"
     borderopacity="1.0"
     inkscape:pageopacity="0.0"
     inkscape:pageshadow="2"
     inkscape:zoom="4.8064775"
     inkscape:cx="51.25965"
     inkscape:cy="60.297351"
     inkscape:document-units="mm"
     inkscape:current-layer="layer1"
     inkscape:document-rotation="0"
     showgrid="false"
     showguides="false"
     inkscape:window-width="1624"
     inkscape:window-height="986"
     inkscape:window-x="38"
     inkscape:window-y="0"
     inkscape:window-maximized="0"
     units="px" />
  <metadata
     id="metadata5">
    <rdf:RDF>
      <cc:Work
         rdf:about="">
        <dc:format>image/svg+xml</dc:format>
        <dc:type
           rdf:resource="http://purl.org/dc/dcmitype/StillImage" />
        <dc:title></dc:title>
      </cc:Work>
    </rdf:RDF>
  </metadata>
  <g
     inkscape:label="Layer 1"
     inkscape:groupmode="layer"
     id="layer1">
    <text
       xml:space="preserve"
       style="font-style:normal;font-variant:normal;font-weight:normal;font-stretch:normal;font-size:11.2889px;line-height:1.25;font-family:'Book Antiqua';-inkscape-font-specification:'Book Antiqua';letter-spacing:0px;word-spacing:0px;stroke-width:0.264583"
       x="-676.76349"
       y="15.050721"
       id="text1479"><tspan
         sodipodi:role="line"
         id="tspan1477"
         x="-676.76349"
         y="15.050721"
         style="font-style:normal;font-variant:normal;font-weight:normal;font-stretch:normal;font-family:'Book Antiqua';-inkscape-font-specification:'Book Antiqua';stroke-width:0.264583" /></text>
    <ellipse
       style="fill:#000000;fill-opacity:1;fill-rule:evenodd;stroke:#666666;stroke-width:0.0582432;stroke-miterlimit:4;stroke-dasharray:none;stroke-opacity:1"
       id="path1497"
       cx="13.266368"
       cy="13.01867"
       rx="12.140894"
       ry="11.893168" />
    <path
       sodipodi:type="star"
       style="fill:#ffffff;fill-opacity:1;fill-rule:evenodd;stroke:#666666;stroke-width:1;stroke-miterlimit:4;stroke-dasharray:none;stroke-opacity:1"
       id="path1093"
       sodipodi:sides="5"
       sodipodi:cx="-426.75113"
       sodipodi:cy="-61.307262"
       sodipodi:r1="196.25427"
       sodipodi:r2="71.179863"
       sodipodi:arg1="0.98368499"
       sodipodi:arg2="1.6120035"
       inkscape:flatsided="false"
       inkscape:rounded="0"
       inkscape:randomized="0"
       inkscape:transform-center-x="-0.12239508"
       inkscape:transform-center-y="-0.7822526"
       transform="matrix(0.0489902,0,0,0.04784813,34.440321,16.084735)"
       d="M -318.03443,102.08312 -429.68342,9.8121763 -548.54931,92.578872 l 53.25345,-134.697794 -115.44739,-87.471868 144.56144,9.02314 47.51548,-136.82729 36.09043,140.2744 144.81357,2.90796 -122.25632,77.671207 z" />
    <path
       style="fill:#ffffff;fill-opacity:1;stroke:#ffffff;stroke-width:0.00351372px;stroke-linecap:butt;stroke-linejoin:miter;stroke-opacity:1"
       d="m 13.16489,12.133606 c -0.0025,0.0076 -0.0011,0.01375 -0.0022,0.02142 -2.53e-4,0.002 -0.0018,0.0036 -0.0022,0.0056 -8.36e-4,0.005 2.9e-5,0.0089 -0.0022,0.01353 -3.49e-4,6.95e-4 3.51e-4,0.0016 0,0.0022 -5.83e-4,8.69e-4 -0.0018,0.0012 -0.0022,0.0022 -7.59e-4,0.002 0,0.0079 0,0.0101 0,0.01137 0.0013,0.02371 0,0.03494 -4.67e-4,0.004 -0.0027,0.0084 -0.0032,0.0124 -0.0017,0.01228 -4.09e-4,0.02486 -10e-4,0.0372 -5.9e-5,0.0022 -10e-4,0.0045 -10e-4,0.0067 0,0.01123 0.0016,0.02248 10e-4,0.03381 -0.0011,0.02769 -0.0034,0.05693 -0.0022,0.08454 3.49e-4,0.0086 0.0018,0.01725 0.0022,0.02593 3.5e-4,0.01088 2.8e-5,0.02008 10e-4,0.03043 0.0019,0.01839 1.71e-4,0.03692 0.0022,0.05523 4.09e-4,0.0041 3.51e-4,0.0086 0.0022,0.0124 5.83e-4,0.0012 0.0028,9.85e-4 0.0032,0.0022 0.001,0.0032 5.83e-4,0.0067 0.001,0.0101 0.0015,0.0111 0.0025,0.01754 0.0064,0.02818 0.0091,0.02466 0.02499,0.04599 0.03944,0.06763 0.0039,0.0058 0.01896,0.02422 0.02772,0.02931 0.01872,0.01088 0.05281,-0.0033 0.07142,-0.0078 0.02682,-0.0065 0.05443,-0.01333 0.07996,-0.02479 0.0063,-0.0028 0.0119,-0.0071 0.01812,-0.0101 0.06991,-0.03375 -0.0066,0.0076 0.05864,-0.03043 0.01369,-0.0079 0.03085,-0.01594 0.04371,-0.02593 0.02183,-0.01697 0.01056,-0.01228 0.02878,-0.02593 0.02002,-0.015 0.01712,-0.0049 0.03518,-0.03607 0.0094,-0.01616 0.02568,-0.06282 0.02985,-0.08003 0.0036,-0.01478 0.0043,-0.0302 0.0075,-0.04509 0.0052,-0.02414 0.0062,-0.01823 0.01065,-0.03494 0.0016,-0.0059 0.0027,-0.01209 0.0043,-0.01803 5.83e-4,-0.0019 0.0018,-0.0036 0.0022,-0.0056 0.0023,-0.01469 -0.0047,-0.03071 -0.0064,-0.04509 -0.0021,-0.01707 -10e-4,-0.03089 -0.0022,-0.04734 -5.9e-5,-0.0022 -9.52e-4,-0.0045 -10e-4,-0.0067 -2.52e-4,-0.0056 6.8e-4,-0.01132 0,-0.01691 -4.08e-4,-0.0036 -0.0027,-0.0066 -0.0032,-0.0101 -6.81e-4,-0.0048 1.71e-4,-0.0097 0,-0.01465 -4.09e-4,-0.01021 -0.0026,-0.02022 -0.0032,-0.03043 -6.8e-4,-0.01181 8.56e-4,-0.03331 -0.0032,-0.04622 -0.0012,-0.0039 -0.0059,-0.01151 -0.0075,-0.01578 -9.34e-4,-0.0026 -7.59e-4,-0.0056 -0.0022,-0.0078 -0.0012,-0.002 -0.0035,-0.0031 -0.0053,-0.0045 -0.02536,-0.01965 -0.04287,-0.02138 -0.07356,-0.02254 -0.02597,-9.66e-4 -0.05218,-3.48e-4 -0.07782,0.0033 -0.0038,6.18e-4 -0.0079,2.7e-4 -0.01172,0.0011 -0.0026,6.18e-4 -0.0049,0.0025 -0.0075,0.0033 -0.0387,0.01364 0.02334,-0.01055 -0.02878,0.0089 -0.04028,0.01704 5.83e-4,6.18e-4 -0.02451,0.0089 -0.0078,4.25e-4 -0.0133,0.0066 -0.02025,0.0089 -0.0089,0.0031 -0.01864,0.003 -0.02772,0.0056 -0.0023,6.95e-4 -0.004,0.0027 -0.0064,0.0033 -0.0066,0.0019 -0.01456,0.0025 -0.02132,0.0034 -0.0098,0.0012 -0.01904,0.0057 -0.02878,0.0067 -0.005,5.22e-4 -0.01134,-6.95e-4 -0.01599,0.0011 -0.008,0.0031 -0.01553,0.0079 -0.02346,0.01127 -0.0011,5.21e-4 -0.002,0.0019 -0.0032,0.0022 -10e-4,2.71e-4 -0.0022,-4.25e-4 -0.0032,0 -9.34e-4,3.49e-4 -0.0012,0.0018 -0.0022,0.0022 -0.0046,0.0021 -0.01507,0.0031 -0.01919,0.0067 -0.0013,0.0012 -0.002,0.0031 -0.0032,0.0045 -0.0041,0.0044 -0.01853,-0.0015 -0.02345,0.0011 -0.0016,8.7e-4 -0.0028,0.0022 -0.0043,0.0034 z"
       id="path1214" />
    <path
       style="fill:#ff7f2a;stroke:#666666;stroke-width:0.0288517;stroke-linecap:butt;stroke-linejoin:miter;stroke-miterlimit:4;stroke-dasharray:none;stroke-opacity:1"
       d="m 12.787351,14.221943 0.364657,0.143255 -0.337519,0.960637 -0.39349,-0.18033 z"
       id="path882" />
    <path
       style="fill:#ff7f2a;fill-opacity:1;stroke:#666666;stroke-width:0.0288517;stroke-linecap:butt;stroke-linejoin:miter;stroke-miterlimit:4;stroke-dasharray:none;stroke-opacity:1"
       d="m 12.814489,15.325835 0.08311,-0.02865 0.305293,-0.901651 -0.05089,-0.03033 z"
       id="path884" />
    <path
       style="fill:#ff7f2a;stroke:#666666;stroke-width:0.0288517;stroke-linecap:butt;stroke-linejoin:miter;stroke-miterlimit:4;stroke-dasharray:none;stroke-opacity:1"
       d="m 13.55915,14.546423 0.370304,0.137749 -0.127382,0.95799 -0.465476,-0.127968 z"
       id="path882-0"
       inkscape:transform-center-x="-0.30704151"
       inkscape:transform-center-y="0.18977893"
       sodipodi:nodetypes="ccccc" />
    <path
       style="fill:#ff7f2a;fill-opacity:1;stroke:#666666;stroke-width:0.0288517;stroke-linecap:butt;stroke-linejoin:miter;stroke-miterlimit:4;stroke-dasharray:none;stroke-opacity:1"
       d="m 13.929454,14.684172 0.09434,0.05349 -0.135687,0.859519 -0.08604,0.04499 z"
       id="path922" />
    <path
       style="fill:#ff7f2a;fill-opacity:1;stroke:#666666;stroke-width:0.0288517;stroke-linecap:butt;stroke-linejoin:miter;stroke-miterlimit:4;stroke-dasharray:none;stroke-opacity:1"
       d="m 14.223778,14.761484 0.197156,-0.72392 0.264752,1.14932 -0.396189,-0.1418 z"
       id="path924" />
    <path
       style="fill:#ff7f2a;fill-opacity:1;stroke:#666666;stroke-width:0.0288517;stroke-linecap:butt;stroke-linejoin:miter;stroke-miterlimit:4;stroke-dasharray:none;stroke-opacity:1"
       d="m 14.420934,14.037564 0.04319,-0.15859 0.281654,1.229547 -0.06009,0.07836 z"
       id="path926" />
    <path
       style="fill:#ffccaa;fill-opacity:1;stroke:#666666;stroke-width:0.0288517;stroke-linecap:butt;stroke-linejoin:miter;stroke-miterlimit:4;stroke-dasharray:none;stroke-opacity:1"
       d="m 14.114873,14.767083 0.570813,-1.996383 0.04882,0.07463 -0.270386,1.033643 -0.04319,0.15859 -0.197156,0.723921 z"
       id="path928" />
    <path
       style="fill:#ffe6d5;stroke:#666666;stroke-width:0.0288517;stroke-linecap:butt;stroke-linejoin:miter;stroke-miterlimit:4;stroke-dasharray:none;stroke-opacity:1"
       d="m 12.787351,14.221943 -0.23095,-0.09669 0.623388,-1.750101 0.315451,0.08583 1.190446,0.309719 -0.570814,1.996382 -0.09108,-0.02943 -0.09434,-0.05349 -0.370304,-0.137749 -0.356259,-0.150889 -0.05089,-0.03033 z"
       id="path930" />
    <text
       xml:space="preserve"
       style="font-size:0.837273px;line-height:1.25;font-family:Candara;-inkscape-font-specification:Candara;letter-spacing:0px;word-spacing:0px;stroke-width:0.0196236"
       x="17.237215"
       y="6.6273451"
       id="text866"
       transform="matrix(0.90203519,0.38630524,-0.36610025,0.95181825,0,0)"><tspan
         sodipodi:role="line"
         id="tspan864"
         x="17.237215"
         y="6.6273451"
         style="stroke-width:0.0196236">&lt; / &gt;</tspan></text>
    <text
       xml:space="preserve"
       style="font-size:1.10852px;line-height:1.25;font-family:'Bauhaus 93';-inkscape-font-specification:'Bauhaus 93, ';letter-spacing:0px;word-spacing:0px;stroke-width:0.0259808"
       x="16.029491"
       y="5.9794745"
       id="text878"
       transform="matrix(0.99611275,0.50266309,-0.40788135,0.79807542,0,0)"><tspan
         sodipodi:role="line"
         id="tspan876"
         x="16.029491"
         y="5.9794745"
         style="stroke-width:0.0259808" /><tspan
         sodipodi:role="line"
         x="16.029491"
         y="7.3651247"
         style="stroke-width:0.0259808"
         id="tspan880">#</tspan></text>
    <path
       style="fill:#ff7f2a;fill-opacity:1;stroke:#666666;stroke-width:0.0288517;stroke-linecap:butt;stroke-linejoin:miter;stroke-miterlimit:4;stroke-dasharray:none;stroke-opacity:1"
       d="m 13.500873,12.462847 0.03661,-0.0877 0.277896,0.07743 -0.03286,0.08862 z"
       id="path989" />
    <path
       style="fill:#ff7f2a;fill-opacity:1;stroke:#666666;stroke-width:0.0288517;stroke-linecap:butt;stroke-linejoin:miter;stroke-miterlimit:4;stroke-dasharray:none;stroke-opacity:1"
       d="m 13.815383,12.452586 0.05258,0.05224 -0.01314,0.04851 -0.07229,-0.01213 z"
       id="path991" />
    <path
       style="fill:#ff7f2a;fill-opacity:1;stroke:#666666;stroke-width:0.0288517;stroke-linecap:butt;stroke-linejoin:miter;stroke-miterlimit:4;stroke-dasharray:none;stroke-opacity:1"
       d="m 13.969807,12.580819 0.01859,-0.07256 0.267536,0.06069 -0.02191,0.08444 z"
       id="path993" />
    <path
       style="fill:#ff7f2a;fill-opacity:1;stroke:#666666;stroke-width:0.0288517;stroke-linecap:butt;stroke-linejoin:miter;stroke-miterlimit:4;stroke-dasharray:none;stroke-opacity:1"
       d="m 14.25593,12.568945 0.09228,0.03561 -0.01129,0.07059 -0.102894,-0.02177 z"
       id="path995" />
    <path
       style="fill:#008080;fill-opacity:1;fill-rule:evenodd;stroke:#666666;stroke-width:0;stroke-miterlimit:4;stroke-dasharray:none;stroke-opacity:1"
       d="m 11.153362,12.196322 c -0.0025,-0.01142 -0.03574,-0.160575 -0.0738,-0.331445 -0.03806,-0.170871 -0.06466,-0.315527 -0.05909,-0.321459 0.01241,-0.01322 0.201513,-0.04406 0.209651,-0.03419 0.0032,0.0039 0.03906,0.155416 0.07966,0.336711 l 0.07381,0.329626 -0.112811,0.02077 c -0.08209,0.01511 -0.114062,0.01511 -0.117406,-4e-6 z"
       id="path1033" />
    <path
       style="fill:#008080;fill-opacity:1;fill-rule:evenodd;stroke:#666666;stroke-width:0;stroke-miterlimit:4;stroke-dasharray:none;stroke-opacity:1"
       d="m 10.732486,11.941966 c -0.04011,-0.1816 -0.06984,-0.332195 -0.0661,-0.334659 0.0037,-0.0025 0.05252,-0.01346 0.108371,-0.02444 0.116608,-0.02293 0.111123,-0.02801 0.141077,0.130659 0.01402,0.07424 0.02411,0.09129 0.05241,0.08852 0.02731,-0.0027 0.03924,0.01356 0.05394,0.07342 0.01742,0.07094 0.01633,0.07809 -0.01419,0.0929 -0.03021,0.01466 -0.03074,0.02623 -0.006,0.13429 0.01486,0.06503 0.02179,0.123817 0.01541,0.130624 -0.0104,0.01111 -0.175602,0.04418 -0.201527,0.0404 -0.0057,-8.69e-4 -0.04323,-0.15011 -0.08334,-0.33171 z"
       id="path1035" />
    <path
       style="fill:#008080;fill-opacity:1;fill-rule:evenodd;stroke:#666666;stroke-width:0;stroke-miterlimit:4;stroke-dasharray:none;stroke-opacity:1"
       d="m 12.539058,11.71532 c -0.02876,-0.133418 -0.06156,-0.243829 -0.07289,-0.245358 -0.01133,-0.0016 -0.05316,0.0046 -0.09296,0.01373 -0.0398,0.009 -0.07401,0.01395 -0.07604,0.01088 -0.0082,-0.01267 -0.03655,-0.175621 -0.03116,-0.179208 0.0032,-0.0021 0.135413,-0.02723 0.293832,-0.05578 l 0.288032,-0.05191 0.02063,0.07811 c 0.01135,0.04297 0.01559,0.08615 0.0094,0.09595 -0.0061,0.0097 -0.04643,0.02242 -0.08949,0.02802 -0.04307,0.0056 -0.07875,0.01296 -0.07931,0.01634 -5.83e-4,0.0033 0.02339,0.112714 0.05323,0.242965 0.02984,0.130249 0.05386,0.239185 0.05338,0.242079 -4.66e-4,0.0029 -0.03762,0.01159 -0.08253,0.01934 -0.04491,0.0077 -0.09521,0.0171 -0.11177,0.02077 -0.02414,0.0054 -0.04047,-0.04138 -0.0824,-0.235892 z"
       id="path1037" />
    <path
       style="fill:#008080;fill-opacity:1;fill-rule:evenodd;stroke:#666666;stroke-width:0;stroke-miterlimit:4;stroke-dasharray:none;stroke-opacity:1"
       d="m 13.538711,11.516491 c -0.06153,-0.279588 -0.05987,-0.353566 0.0092,-0.412292 0.09033,-0.07675 0.201269,-0.08831 0.290156,-0.03023 0.05952,0.03888 0.06141,0.03914 0.06638,0.0089 0.0022,-0.01341 0.03118,-0.04471 0.06435,-0.06955 0.05059,-0.03789 0.07668,-0.04421 0.161694,-0.03926 0.150498,0.0087 0.178416,0.05119 0.249829,0.379638 0.03144,0.144591 0.0536,0.264742 0.04926,0.267001 -0.0188,0.0097 -0.174959,0.03762 -0.195552,0.03488 -0.01256,-0.0017 -0.04294,-0.09887 -0.06821,-0.218178 -0.05235,-0.247206 -0.07055,-0.289886 -0.111954,-0.262559 -0.02537,0.01674 -0.0045,0.161316 0.06918,0.478599 0.0049,0.02118 -0.07691,0.04756 -0.17372,0.05603 -0.0442,0.0038 -0.04815,-0.0048 -0.08701,-0.190997 -0.04978,-0.23848 -0.06805,-0.291048 -0.10277,-0.295687 -0.04363,-0.0058 -0.04146,0.05284 0.01045,0.282765 0.02689,0.119116 0.04342,0.220226 0.03673,0.224693 -0.01261,0.0084 -0.186704,0.04491 -0.202814,0.04253 -0.005,-6.95e-4 -0.03437,-0.116114 -0.06523,-0.256382 z"
       id="path1039" />
    <path
       style="fill:#008080;fill-opacity:1;fill-rule:evenodd;stroke:#666666;stroke-width:0;stroke-miterlimit:4;stroke-dasharray:none;stroke-opacity:1"
       d="m 15.135584,11.416098 c -0.0642,-0.04501 -0.08537,-0.09783 -0.142477,-0.35535 l -0.0516,-0.232722 0.113202,-0.01835 c 0.08333,-0.0135 0.114441,-0.01286 0.117897,0.0025 0.0026,0.01144 0.02528,0.114227 0.05044,0.228413 0.04456,0.202211 0.04716,0.207805 0.100135,0.214882 0.0487,0.0065 0.05636,0.01624 0.07305,0.09279 0.01206,0.05526 0.01145,0.09033 -0.0018,0.09909 -0.03518,0.02347 -0.211227,0.0022 -0.258942,-0.0312 z"
       id="path1041" />
    <path
       style="fill:#800080;fill-opacity:1;fill-rule:evenodd;stroke:#666666;stroke-width:0;stroke-miterlimit:4;stroke-dasharray:none;stroke-opacity:1"
       d="m 11.650176,12.060833 c -0.108126,-0.05379 -0.167539,-0.118867 -0.19969,-0.218721 -0.03954,-0.122791 -0.0147,-0.224487 0.07926,-0.324604 0.09608,-0.102377 0.226047,-0.148267 0.383341,-0.135361 0.140464,0.01153 0.222831,0.05345 0.300524,0.152937 l 0.04497,0.0576 -0.114634,0.02843 c -0.107937,0.02676 -0.117243,0.02652 -0.159344,-0.0041 -0.178525,-0.130121 -0.412514,0.06043 -0.276637,0.225281 0.04277,0.05188 0.05588,0.05778 0.134112,0.06025 0.10625,0.0033 0.179909,-0.04549 0.193597,-0.128411 0.0087,-0.05267 0.01413,-0.0559 0.124129,-0.07372 l 0.115039,-0.01865 0.0047,0.04229 c 0.01,0.091 -0.07946,0.254315 -0.167305,0.305431 -0.127913,0.07443 -0.345773,0.08925 -0.462008,0.03144 z"
       id="path1043" />
    <path
       style="fill:#800080;fill-opacity:1;fill-rule:evenodd;stroke:#666666;stroke-width:0;stroke-miterlimit:4;stroke-dasharray:none;stroke-opacity:1"
       d="m 13.046226,11.778302 -0.02171,-0.09106 0.04975,-0.0019 c 0.0826,-0.0031 0.08416,-0.0607 0.0046,-0.168803 -0.07758,-0.105385 -0.0898,-0.179438 -0.04332,-0.262528 0.03443,-0.06156 0.155045,-0.139423 0.210462,-0.135865 0.01997,0.0013 0.04591,0.0028 0.05766,0.0035 0.01174,6.19e-4 0.02962,0.04194 0.03971,0.09178 0.01513,0.07467 0.01384,0.09001 -0.0073,0.08718 -0.02276,-0.003 -0.07123,0.03864 -0.07558,0.06499 -8.95e-4,0.0055 0.02935,0.04639 0.06722,0.091 0.04166,0.04907 0.07334,0.108984 0.0802,0.151697 0.01027,0.06403 0.006,0.07744 -0.04533,0.143914 -0.03913,0.0506 -0.08119,0.08166 -0.135802,0.100244 -0.126731,0.04315 -0.15538,0.03137 -0.180555,-0.07422 z"
       id="path1045" />
    <path
       style="fill:#800080;fill-opacity:1;fill-rule:evenodd;stroke:#666666;stroke-width:0;stroke-miterlimit:4;stroke-dasharray:none;stroke-opacity:1"
       d="m 14.558323,11.568868 c -0.0036,-0.01664 -0.01351,-0.05667 -0.02207,-0.08896 -0.0195,-0.07361 -0.01998,-0.07198 0.01937,-0.06673 0.08681,0.0116 0.112782,-0.06477 0.04536,-0.133386 -0.0679,-0.06909 -0.105169,-0.159285 -0.09399,-0.227457 0.01586,-0.09676 0.143254,-0.198499 0.259751,-0.207438 0.04505,-0.0035 0.05056,0.0036 0.07057,0.08991 l 0.0217,0.09366 -0.04026,0.0099 c -0.07097,0.01751 -0.06678,0.06243 0.01573,0.168595 0.07125,0.09167 0.07715,0.107694 0.06558,0.177837 -0.0166,0.100549 -0.08134,0.168806 -0.188799,0.199072 -0.102333,0.02882 -0.14439,0.02469 -0.152936,-0.01504 z"
       id="path1047" />
    <path
       style="fill:none;stroke:#000000;stroke-width:0.0288517;stroke-linecap:butt;stroke-linejoin:miter;stroke-miterlimit:4;stroke-dasharray:none;stroke-opacity:1"
       d="m 9.3681062,12.93862 c 1.5772538,-0.532371 3.1544998,-1.064739 4.4388428,-0.721418 1.284342,0.343321 2.275736,1.562272 2.481471,1.40235 0.205734,-0.159923 -0.374183,-1.698682 -0.954114,-3.237477"
       id="path1073"
       inkscape:path-effect="#path-effect1741"
       inkscape:original-d="m 9.3681062,12.93862 c 1.5772568,-0.532361 3.1545028,-1.064729 4.7317438,-1.597106 0.991444,1.219007 1.982837,2.437959 2.974241,3.656926 -0.579927,-1.538815 -1.159845,-3.077573 -1.739785,-4.616365"
       sodipodi:nodetypes="cccc" />
    <path
       style="fill:none;stroke:#000000;stroke-width:0.0154842px;stroke-linecap:butt;stroke-linejoin:miter;stroke-opacity:1"
       d="m 9.3681062,12.93862 c 0.7331018,0.845214 1.4661878,1.690411 2.4330098,2.272069 0.966821,0.581658 2.167323,0.899773 3.032924,0.719059 0.865602,-0.180714 1.424219,-0.896006 1.861458,-0.453385 0.437239,0.442622 0.767026,2.025227 1.096815,3.607845"
       id="path1469"
       inkscape:path-effect="#path-effect1743"
       inkscape:original-d="m 9.3681062,12.93862 c 0.7331028,0.845213 1.4661898,1.690409 2.1992618,2.535593 1.200567,0.318142 2.401068,0.636259 3.601575,0.954366 0.530717,-0.679531 1.089332,-1.394825 1.633991,-2.092278 0.329818,1.582681 0.659602,3.165286 0.989379,4.747907"
       sodipodi:nodetypes="ccccc" />
    <text
       xml:space="preserve"
       style="font-style:normal;font-variant:normal;font-weight:normal;font-stretch:normal;font-size:0.660652px;line-height:1.25;font-family:'Book Antiqua';-inkscape-font-specification:'Book Antiqua';letter-spacing:0px;word-spacing:0px;stroke-width:0.0154842"
       x="14.051455"
       y="12.457823"
       id="text1483"
       transform="matrix(0.98529425,0.29623258,-0.31743357,0.91948759,0,0)"><tspan
         sodipodi:role="line"
         id="tspan1481"
         x="14.051455"
         y="12.457823"
         style="font-style:normal;font-variant:normal;font-weight:normal;font-stretch:normal;font-family:'Book Antiqua';-inkscape-font-specification:'Book Antiqua';stroke-width:0.0154842">CoderBot</tspan></text>
    <text
       xml:space="preserve"
       style="font-size:0.660652px;line-height:1.25;font-family:'Bauhaus 93';-inkscape-font-specification:'Bauhaus 93, ';letter-spacing:0px;word-spacing:0px;stroke-width:0.0154842"
       x="12.829915"
       y="16.951218"
       id="text1487"
       transform="scale(1.035166,0.96602864)"><tspan
         sodipodi:role="line"
         id="tspan1485"
         x="12.829915"
         y="16.951218"
         style="stroke-width:0.0154842">.</tspan></text>
    <text
       xml:space="preserve"
       style="font-style:normal;font-variant:normal;font-weight:normal;font-stretch:normal;font-size:0.660652px;line-height:1.25;font-family:'Book Antiqua';-inkscape-font-specification:'Book Antiqua';letter-spacing:0px;word-spacing:0px;stroke-width:0.0154842"
       x="13.750385"
       y="17.064367"
       id="text1495"
       transform="scale(1.035166,0.96602864)"><tspan
         sodipodi:role="line"
         id="tspan1493"
         x="13.750385"
         y="17.064367"
         style="font-style:normal;font-variant:normal;font-weight:normal;font-stretch:normal;font-family:'Book Antiqua';-inkscape-font-specification:'Book Antiqua';stroke-width:0.0154842">org</tspan></text>
  </g>
</svg>
