<?xml version="1.0" encoding="UTF-8" standalone="no"?>
<svg xmlns="http://www.w3.org/2000/svg" width="642.52" height="340.157" viewBox="0 0 170 90" version="1.1" id="svg2172"><g id="layer1" transform="translate(0 -207)"><path class="state border AL" id="AL" d="M107.773 277.484l-.599.023.55-.117zm6.753-14.47l.4 2.228.294 1.737.412 2.359.313 1.006.315.554-.076.238.26.24-.4.421-.036.405-.227.545.275.872-.183.794.024.267.225.288.032.26h-4.317l-2.713.001-.09.38.604.68-.04.495-.148.359-.49.319-.6.031.3-.113-.479-.606.083-.197-.087-.33-.219-.191-.168.44-.096.71-.5-.188-.267.04-.128-2.528-.1-1.981.292-2.464.191-1.635.377-3.246.222-1.948-.247-.281-.018-.038 1.824.013 2.14.05z" fill="green" fill-opacity="1" stroke="#000" stroke-width=".125" stroke-miterlimit="4" stroke-dasharray="none" stroke-opacity="1"/><path class="state border AK" d="M13.854 267.151l-.174.114-.337.562-.266.285-.396.268-.547.107-.599.034.253-.113-.17-.09-.26.137-.138.228-.212.15.188.103.053.231-.071.232-.17.176.12-.396.001-.239-.184-.017-.56.594-.393.202-.236.006-.223-.148-.516.827-.336.372-.142.886-.406.588-.279.252-.311.158-.569.102-.505.043-.466-.029.035.203-.039.457-.25.432.205.123.3.338.4.158.474.433.132.052.442.415.155.245.124.329.036.388.062.074.922.164.182-.26-.082.317.49-.127.273.166-.188.034-.123.273.01.212.315.335.137-.003.146-.226.206-.04.285.154.074-.084.181.203-.024.25-.436.054-.333-.312-.338.16-.214-.152-.172-.26.053-.207-.254-.37-.254.12.161.33.145.016.27.324.054.145-.072.279.17-.132.192-.004.306.123.112.196-.058.195-.03-.213-.38-.015-.263.53-.017-.12-.216-.062-.387.07-.09-.124-.29.064-.19-.052-.267.037-.18-.246-.235.028.274-.184-.033-.212.129-.395-.438.003-.362.089-.257.303-.222-.073-.375.218-.1.159.317.17-.208.088-.275-.037-.158-.104-.56.39.079.052-.149.13-.234-.038-.175.168.049.128-.263.039-.21.24.557.355.375.029.65.184.013.095-.189-.076-.146.254-.18.039-.131-.07.19.314.24.153-.076.306.239.26.606.131.335.114.067-.082.246-.015.213-.12.467-.036.229.044.327.273.077-.194-.285-.136.12-.092.339.264.038.28.112-.09.03-.201.274-.201.154-.185.15.018.146-.15.24.036.197-.3.242.235.066.302-.235.253-.297-.033.022.157.372.325.036.358.133.392-.021.137-.321.417-.209.08-.177-.017-.416.066.107-.092-.163-.108-.292.465-.172.098-.06.135-.174.142-.21.045-.072-.11-.181-.035-.085-.186-.31-.063-.178.056-.187.17.23.197-.285-.03-.18.322v.174l.084.2.245-.212-.317.348-.215.037-.116.131-.351.532-.028.249.105.185-.4.05.08.14.18.083-.34.146.076.155.149-.102.118.075-.116.187.075.139.168.052.001.22.203.115-.022-.199.07-.105.072-.02-.057-.097.17-.23.156-.068.14-.173-.032.137-.323.198-.054.256-.113.075.248.239.049-.082.04.15-.201.067.056.086.222-.043.047.076.138-.046.052.122.496-.021.127-.174.181.092-.23.103.356.143-.033.14-.257.15-.021-.243-.122-.072-.146.184-.102.016-.009-.211-.325-.06.001-.153-.296.214.026.12-.351.248.17.085.172-.087-.096.192.114.141.257.072.212.315.244.133-.08.078.092.187.18.052.215-.003.43-.09.227-.127.046-.097.185.012.046-.32-.114-.19.156-.087.114-.36.298-.159-.255.199-.135.402-.055.055.18.247.022.17.404.802-.19.173-.085.178.127.293.211-.1.018.092-.15.094.067.391-.19.118-.185.046.38.046-.044.08.326-.147.059-.199.091.016.238-.15.048.045.133-.14.257-.186.078.12.008.156.163.006.114.175.091-.053.046-.19.123.03.166.226.27.49.181.03.049-.168-.117-.38.103.008.047-.153.222-.304.06.056-.148.328.128.074.076.182.132.05.477-.2.075-.077.32-.13.1-.115-.083.354-.358.389-.055.21.091.146-.12.17-.082.677.083.02.007.188-.07-.115-.212.108-.129.168-.173.094-.303.417.035.363-.25-.11-.416.299-.235.07-.36.27-.148.152-.172.398.049.075.23.134-.025.09-.157-.033-.042-.102-.222-.025-.013.238-.182-.242.132-.059-.01-.082-.146.072-.256-.02.172-.083-.546.188-.327.249-.263.326.043.115-.128.017-.197.128.05.052-.104.08-.051-.103-.253.171.043.174-.032.236.211-.154-.126-.157.015-.118.128.046.134.216.077.003.137-.309-.074-.047.1-.135.181.264-.128-.013.078.105.18-.004-.024-.098.14.046.084-.063-.073-.148.117.023.152-.238.006-.18.072-.118.147-.035.228.127-.187-.037-.105.256.195.04.206-.099.083-.125.115.098.08-.023.059-.192.053.158.147-.169-.06-.046.25-.037.073-.162.157-.003.018-.08.167.055-.07.199.076.044.093-.181-.045-.154.129.028.246-.095.138.01.057-.127.12.082.009-.211.172-.124-.09.216.141.046-.062-.131.23-.11-.12-.05.13-.093-.214-.082.033-.132.24-.038-.013-.067.225.049-.005-.13-.203.058.18-.174.113-.042.088.102.17-.044-.095-.104.135-.066-.01-.147.188.13.202-.196.107.012.012-.181.2.073-.079-.108.113.01.132-.178-.082-.075.084-.116-.174.009.318-.24.087.061.032-.21.058.06.17-.024-.025-.134.131-.03.005-.182.172.096.056-.165.21-.084.022-.174.206.019.077-.095.09.065.114-.174.226-.106-.153-.057.134-.155.155-.036-.067-.161.128-.034.02-.146.171-.007.205-.166.122-.164-.035-.134-.187-.085-.123-.12-.253-.02-.135.073.04-.371.091-.09-.096-.06.342-.13-.054-.116.138-.018-.068-.117.19-.046.016-.2.111.236.213-.11.034-.186-.224.019.049-.075.4-.062.121-.283-.246-.246.225.042.3-.268-.075-.125.383-.444.13.052-.074-.161.044-.141.146-.124.336-.11.078-.159.269-.145.155-.184.073.187.38.01.186-.334.267-.096.088.055-.273.113-.197.285-.14.122.367.256.231.102.183.003-.013.072-.404-.085-.164-.065-.18.097-.147-.032-.09-.152-.096-.001-.253.17-.251.224-.282.106.11.285-.02.234-.068.043-.061.268-.196.226-.145.392.111.158.224.072.296-.23.095.011-.228.334-.16.125-.149-.012-.202.131-.07.131.199.22.141-.013.122-.126.21.077.05-.062-.105-.102.142.026.072.098.038-.14.275-.234.083.022.208-.378-.119.375.23-.19.14-.188-.003-.094.142.171-.019-.182.036-.273.067.12.207-.172.021-.176.057.345.082-.195.126-.059-.056.13.19.048.255-.03.012-.117.09.113.083-.325.137.031-.08-.127-.146.074.185-.214.224-.19-.116-.253-.158.173-.156-.08-.18.139.164-.196.142.05.096-.123-.049-.173-.141.173.045-.238-.27.163.203-.26.1.034.131-.323.083-.001.264-.403-.008.137-.13.154-.108.23.146.178.114-.082.097.044.056-.47v.389l.076.017.329-.171.079.096.296-.298h.211l.035.088-.296.011-.087.174.198.232.234-.118.106.082-.49.152.042.075.167.003.315-.09-.172.156.284-.08.057.132.176-.092-.117.216-.135.135.298.007.15.138.125-.01.39-.494-.106.312.078.032-.122.247h.128l.173.18.31.006-.05.05.272.243.253-.08.337-.03.324-.068.675.13.193.101.283-.11-.073-.141.079-.026.096.2-.012.107-.125.11.661.25.24.011.387-.18.216-.21.035-.14.263.27-.05.058.044.324-.095-.15.03-.222-.136-.198-.122.16.12.264-.149.216-.162.044.32.204.183.048.027.092.183.067.267.167.167-.04-.047.1.178.065.248.242.043.174.212.251.157-.073-.09.122.373.294.208.02.15.231.107-.06-.02-.125.175.083.24-.067-.006-.252-.17-.226-.052-.003-.188-.263-.333-.066.068-.092-.098-.17.325.263-.064-.2.112.164.067-.082.014.201.216.127.091-.187-.006-.207.075.234-.05.068.191.421-.056.217.23-.066.098.068.032-.128.13.316.133.052.072-.197-.137-.385.051-.033-.174-.449.001-.226-.146-.215.068.007.123.187-.033-.169-.158-.16.114.028.067-.227-.024.273.108.217.165.58.062-.121.023.21-.056-.006.183.417.219.067.21.206.192-.286-.051.191.006.302.115.126.203-.047-.026.114-.13-.025.142.24.108-.2.021.258.297.2-.003.047-.33-.197-.061.02.035.177.135.015-.05.133.13.092-.042.111.187.022-.228.05-.09.147.215.113.052-.105.107.127.177.092-.037.054.131.194.183.123.085-.05-.095.218.06.047.14-.049-.037.144.119.092.034.127.156.033.076.185.196.023-.266.068.016.208-.092.086-.002.192-.169.066.076.23.172.12.11-.228.04-.216-.093-.041.127-.043.262-.17.059.068.27-.21-.151.195.25.351.013.509.165-.01.032.079-.249.006-.097.12.038.27.074.261.072.05.079-.104.051.096.25-.181.234-.44.071-.068-.127-.358-.022-.276.125-.217v-.13l-.08-.143-.233-.023-.075-.153-.123-.041-.157-.153-.212-.05-.397-.262-.173.012-.06-.29-.191-.091.06-.24-.252-.074.09-.165-.262-.433-.296-.55-.13-.184-.074-.203-.17-.211-.014-.166-.191-.21-.2-.28-.285-.16-.145-.197.002-.115-.251-.283-.186-.046-.133-.225.065-.19-.2-.235-.18-.144-.36.193-.347.113.06.161-.156.038v.263l-.119.201-.185.01-.36.24-.114.12-.154-.497-.806-.783-.076-.204-.3-.174-.1-.113.09-.351-.023-.072-.43.019-.316.228-.332-.165-.09.116-.362-.12-.019-.04v-3.768l-.001-1.24v-5.013l-.002-1.409v-5.774l-.331.001-.196-.249-.504-.21-.269-.352-.57-.234-.623.07-.43.232-.578-.038-.473-.397-.812-.034-.2.05-.557-.157.006-.122-.287-.15-.189.1-.245-.247-.656-.238-.327.023-.187.161-.243.05.03-.173-.337-.016-.314.126v.159l-.225-.135-.429-.024.201-.252h-.731l.092-.08.36.032-.303-.11-.055-.146.242-.302-.088-.092-.796-.168-.173.097-.309-.025-.193.25-.408-.095.028-.397-.199-.24-.3-.052-.252.406-.048.25-.28.049-.123-.35.196-.023.193-.204-.025-.272-.655-.195-.144-.213zm-7.742 21.03l-.226.067-.066-.059-.096.112-.175.035-.066.128-.338-.045-.12.068.2.26.47.263.169.003.169.143.033-.1.329-.152.163-.014-.139-.203.034-.362-.084-.065-.236.012-.021-.091zm25.42 3.056l.002.24.096.143.118.745.154.293.006.118-.134.116.034.107-.03.205.214-.108-.006-.067.158-.082.077-.122-.083-.158.191.113.038-.181-.141-.038.142-.04-.037-.185-.22-.32-.066.005-.023-.233.071-.097.218.538.083.05-.022-.204-.257-.477-.196-.073-.204.013-.094-.237zm-.73.146l-.138.156-.126-.08-.018.194-.085-.186-.075-.004.067.166H30.3l.096.162-.085.233.267.211-.044.064.157.034-.073.063.166.127-.143-.043.134.178.114.039.125-.124-.042-.221-.085-.06-.047-.16.58.422.192-.028-.076-.388-.244.07-.122-.027-.008-.116-.342-.185-.044-.085.48.285.267-.025.004-.311-.378-.166-.222.249.144-.28-.188-.098-.08-.066zm-14.242.386l.172.25-.136-.093.034.065-.01.103-.217-.076.124.13-.154.007-.123-.22-.212.123.093.574-.065.006-.09-.318-.18-.066-.238.138-.173.216-.046.222.128.004.074.137.005.259.237.13.065-.099.03-.218-.122.008-.092.093-.09-.087.109-.05.327.041-.145.164.03.056.24-.269-.136.27.114-.012-.189.177-.047.15.13-.011.184-.198.054-.171.141-.091.2-.232.127.026.113-.054-.15-.09.212-.047.037.117.141-.04.024-.153-.276-.16.188.012.128.086.2.023.025-.11.132-.162-.228.013-.026-.223.083-.044-.105-.163-.1-.034-.109.157-.062-.05-.03.175-.057-.04.038-.172-.11-.062-.221-.117zm14.594.66l-.113.067-.053.163-.073.05.119.173.16-.018-.066.13.032.092.17.074-.17.14.065.071-.06.09.171.04-.024.174.099.099.085-.163.012.188-.087.07.14.29.184.214.025-.12.009-.652-.093-.408-.085-.174-.062-.274-.19-.195-.218.029.107-.09-.084-.06zm.91.872l.128.135-.161-.073.02.147-.104-.07.041.234.11.02-.067.137.224.124-.016.15-.104-.101-.084.11.058.415.056.025.088-.363-.003.254.072.043.033-.256-.052-.116.104-.102-.01-.214.124-.024-.061-.116.052-.12-.12-.052-.011.142-.09-.222-.227-.107zm.552.827l.013.232.234.025.054.39.064.01-.079.181-.056-.026-.06.184.104.06.23-.074-.084.083-.027.158.19.141-.25-.037-.027.145.337.012.011.11.224.102-.067.196.155-.063.083.296.124.128.118.006.046-.128-.05-.239-.174-.029.119-.079.088-.211-.353-.423.123.019-.078-.191-.095-.033v-.15l-.138-.213-.17-.148-.181-.018-.063-.092.095-.064-.13-.233-.09.026-.24-.053z" id="AK" fill="green" fill-opacity="1" stroke="#000" stroke-width=".125" stroke-miterlimit="4" stroke-dasharray="none" stroke-opacity="1"/><path class="state border AZ" id="AZ" d="M50.832 256.615v2.27l-.001 3.364v8.765l-.001 3.231h-5.323l-.165-.019-3.418-1.189-2.223-.765-2.224-.768-2.33-.807.258-.651.112-.108.4.03.211-.423-.043-.332-.606-.32.065-.354-.132-.312.011-.339.249-.063.245-.385.13-.504-.093-.669.38-.565.692-.485.007-.15-.649-.433-.01-.197-.344-.697-.334-.394-.03-.39-.02-.42.17-.169-.049-.509-.208-.517.061-.36-.113-.28.054-.49-.198-.355.05-.34.452-.215.563.066.31.367.298-.068.223-.554.004-2.508 1.696.001 2.545.002 3.392.003 3.816.003z" fill="green" fill-opacity="1" stroke="#000" stroke-width=".125" stroke-miterlimit="4" stroke-dasharray="none" stroke-opacity="1"/><path class="state border AR" id="AR" d="M103.336 259.81l.135.33-.298.06.168.14-.587.307.055.596-.257.115-.246.397-.008.825-.195-.02-.344.407.089.242-.522.298.024.215-.268.06-.11.305v.678l-.45.138-.042.314-.491.382.2.178-.073.2-.477.12.133.204-.027.36-.49.385.202.174-.228.205.294.274-.149.486.202.16.023.363-.168.096-.015.32-1.981.004-3.401.004-2.429.002-.016-1.67-.397-.123-.366.11-.424-.275.03-1.345.092-4.078-.487-3.535h12.108l.27.418-.012.26-.604.534-.228.425z" fill="#ccc" fill-opacity="1" stroke="#000" stroke-width=".125" stroke-miterlimit="4" stroke-dasharray="none" stroke-opacity="1"/><path class="state border CA" id="CA" d="M35.666 262.956l.03.39.334.394.345.698.01.196.648.434-.007.15-.692.484-.38.565.092.67-.13.503-.244.385-.249.063-.01.34.13.31-.064.356.606.319.043.332-.212.423-.4-.03-.112.108-2.906.247-3.617.306-.022-.483-.338-.036.01-.56-.186-.685-.507-.697-.727-.597-.549-.33-.304-.293-.446-.106-.1.192-.328-.119.056-.291-.145-.351-.27-.278-.555.022-.159.1-1.095-.474-.161-.319-.52-.37-.426-.145-.71.044-.692-.207-.922.07-.101-.221-.375-.2.122-.373-.034-.48-.156-.154.076-.728-.328-.065-.359-.282.18-.272-.208-.353-.265-.04-.445-.556-.323-.088-.133-.386-.343-.317-.072-.303-.209-.12-.441-.567-.464-.338-.212-.864.444-.347.067-.395-.4-.553-.298.097-.29-.093-.682-.7.011-.534-.326-.556.014-.81.29-.095.136.707.292.08.41.366.167.012-.293-.414-.044-.277-.459-.383.007-.41-.169.002.068-.341.378-.15.215.113.39-.106.854.153.323-.287-.297.014-.167.207-.508-.095-.343-.246-.204.3-.384-.106-.34-.257-.287.13-.003.615.175.14-.243.213-.467-.246-.561-.456-.328.122.212-.488-.068-.4-.239-.097-.18-.503-.566-.387-.21-.327-.848-.83.101-.362-.369-1.059.15-.657-.229-.964-.711-.918-.673-.519-.125-.615.461-1.065.07.194.279-1.156-.035-.478.168-.87-.264-1.033-.281-.137.12-.253.012-.517h11.45v8.086l.001 2.056 1.91 1.616 1.272 1.071 1.91 1.598 1.992 1.784 1.993 1.77 1.31 1.209 2.673 2.448z" opacity="1" fill="green" fill-opacity="1" stroke="#000" stroke-width=".125" stroke-miterlimit="4" stroke-dasharray="none" stroke-opacity="1"/><path class="state border CT" id="CT" d="M152.037 239.913l.013 1.695-.14.713-.137-.122-1.06.218-.16-.084-.438.175-.263-.094-.781.132-.048-.205-.54.534-.205-.086-1.247.59-.217-.35.649-.39-.165-.263.174-2.614 1.829.075 2.734.04z" fill="green" fill-opacity="1" stroke="#000" stroke-width=".125" stroke-miterlimit="4" stroke-dasharray="none" stroke-opacity="1"/><path class="state border DE" id="DE" d="M142.19 247.41l-.49.634.137.251-.09.261.416.492.11.3v.56l.228.422.39.44.223-.004-.038.518.148.607-.037.001h-.071l-1.657-.023-.258-4.175.509-.39z" fill="green" fill-opacity="1" stroke="#000" stroke-width=".125" stroke-miterlimit="4" stroke-dasharray="none" stroke-opacity="1"/><path class="state border FL" id="FL" d="M128.776 292.25l-.59.594.601-.786-.014-.185.301-.148zm-4.673-3.853l-.262-.552.173.134zm5.2-1.981l-.379-.766-.111-.437zm-1.209-3.989l-.125.384-.018.54-.148-.396-.035-.457zm-12.156-3.285l-.062.153-.282-.162zm-4.012-2.124l-1.844.223.593-.144.988-.123zm13.756-.928l.162.034.007.527.117.672.424 1.666.165.45.696 1.523.801 1.225.269.522-.179.207.006.566.163.55-.238-.548.087-.872-.059-.306-.425-.006.037-.38-.26-.142.298 1.22.971 2.06.097.44.4.92.134.168.3.943-.041.732-.161 1.398-.044.839-.032-.358-.15.42-.151.094-.247.646.076.349-.521.485-.203-.116-.354.273-.39-.117-.151.117-.48.068-.245-.302.078-.294.553.337-.098-.3-.457-.22-.47-1.103-.201-.197-.616-.273-.26.112-.011-.232-.213-.313-.117-.904-.366-.195.083-.192-.248.06-.116-.438.068-.534-.45-.286.196.467-.444-.133-.674-1.232-.032-.344-.34-.173.29-.242.13-.324.397-.424-.064-.352-.32.213.013-.213-.425-.35-.076.32.31.134-.09.524h-.127l-.41-.537.185-.64-.055-.16.336-.838.09-1.245-.262-.252-.2-.634h-.606l-.363-.384-.158-.311-.514-.358-.011-.4-.323-.144-.415-.609-.933-.55-.42.1-.223-.079-.334.201.094.385-.434-.059-.611.386-.416.183.036-.221-.356.262-.326-.017-.603.129.12-.354-.28-.407-.722-.557.502.192-.023-.244-.204.079-.41-.243-.093-.368-.242.122.208.112.062.3-.874-.495-.812-.222.132-.164.57.105-.273-.31-.632.085.073-.125-.726.285-.99.098.324-.24-.245-.152-.142.18-.307-.37.064.329-.467.46-.545.126.5-.447-.202-.155.04-.494-.603-.681.09-.38h7.03l.17.324.064.394.145.119 1.773.115 3.244.212 2.122.138.154.588.365-.024.1-.634-.08-.444.36-.245.544.232z" fill="green" fill-opacity="1" stroke="#000" stroke-width=".125" stroke-miterlimit="4" stroke-dasharray="none" stroke-opacity="1"/><path class="state border GA" id="GA" d="M125.806 276.022l-.076-.507.17-.063zm.524-1.959l-.105-.071.177-.346.164.015zm1.009-1.947l.148.09-.393.416-.375-.128-.067.16.28.084-.425.33-.372.524-.087.32.108.268-.384.004.535.22-.315.4-.192-.146.088.496-.267.51.06.426-.566-.086-.544-.231-.36.244.08.444-.1.634-.365.025-.154-.589-2.122-.138-3.244-.212-1.773-.115-.145-.119-.064-.393-.17-.325-.032-.26-.225-.288-.025-.267.184-.794-.275-.872.227-.545.035-.405.4-.421-.259-.24.076-.239-.315-.554-.313-1.005-.412-2.36-.295-1.737-.399-2.227 3.48-.006 3.288-.042-.525.565-.129.35.509.297.329.363.516.113.26.522.074.336.367.433.078.24.884.672.14.358.695.49.019.353.418.44.047.19.658.358.047.33.266.572-.01.368.558.426.187.497-.067.387.214.324z" opacity="1" fill="green" fill-opacity="1" stroke="#000" stroke-width=".125" stroke-miterlimit="4" stroke-dasharray="none" stroke-opacity="1"/><path class="state border HI" id="HI" d="M48.643 285.85l.744.25.447.272.22.237.005.363.181-.05.105.226.442.5-.449.382-.599.228-.24-.01-.575.33-.467.63-.552-.334-.114-.298.093-.532-.262-.746-.212-.337.364-.375.277-.414-.159-.232.042-.433.351.053zm-2.521-1.08l-.452.018.377-.2zm-1.031-.557l-.187-.068-.198-.418.442-.007.242.28zm.88-.806l.293.34.499-.133.486.32.32.099-.004.314-.344.17-.47.118-.285-.017-.154-.533-.424-.07-.206-.3.08-.24zm-1.79-.534l.955.156.52.024-.446.284-.55-.127-.546.033zm-1.753-1.04l.14.38.281.153.249.273-.402.143-.47-.257-.343.15-.502-.778.43-.03.289-.319.141-.01zm-6.262-.513l-.099-.25.475-.35-.07.297zm2.2-1.233l.26.229-.112.522-.28.247-.456-.063-.42-.24-.073-.243.19-.254.456-.204z" fill="green" fill-opacity="1" stroke="#000" stroke-width=".125" stroke-miterlimit="4" stroke-dasharray="none" stroke-opacity="1"/><path class="state border ID" id="ID" d="M45.385 231.137v2.793l.001 2.21.002 3.812H39.29l-2.033-.001h-4.546l-3.535.001-.005-3.234-.005-3.029.234-.868-.094-.197.195-.367-.208-.295-.602-.106-.024-.664.25-.326.275-.64.483-.615.026-.421.288-.421.186-.716.505-.859-.182-.624-.623-.318-.324-.604-.223-.383.14-.291-.367-.726.007-2.673-.004-3.67.013-3.638h2.69l-.002 3.835.897 1.164.115.364-.154.166.245.285-.202.188.564.47.457.167.184.29.97 1.034.032.285.577.346.342.395.563-.126.052.55-.309.972-.02.999.198.387-.437.415.152.289-.128.5.574.314.585-.32.427-.449.457.4.211 1.022.539.659.225.448-.14.245.428.513.383-.045.375.551.147.693.398.289.447-.453.87.123.344-.35.412.107.575-.085.192.122.81-.186.135-.511.39-.039.266.499z" fill="green" fill-opacity="1" stroke="#000" stroke-width=".125" stroke-miterlimit="4" stroke-dasharray="none" stroke-opacity="1"/><path id="IL" class="state border IL" d="M100.842 238.175l.486.471.162.455.634.447.08.297-.165.75-.283.224-.112.491-.257.213-.441.114-.275.203-.78.06-.172.174-.075.661.356.39-.04.44-.346.417-.255.578-.533.184.002.696-.16.044-.21.69.19 1.037.256.518.681.594.145.268.629.44.243.396.075.68.318.387.427-.295.664.28.154.173-.192.283.003.35-.503 1.108.096.306.64.621.512.21.544.376.205.336.264.116.062.44.205.396-.196.556.371.57.304.293-.073-.26.485.326-.15-.266.367-.471.372-.038 1.147.478.137-.311-.188-.318.105-.459.929-.212.109-.146-.219-.39.321-.541-.181-.3.2-.022.022-.627.262-.203-.16-.164.128-.29.263.016.234-.548.316-.193.085-.434.282-.367-.084-.683-.34-.49.186-.29-.073-.311.253-.206.01-2.548.008-1.955.014-3.54-.154-.17-.3-1.023-.172-.14-.193-.535.018-.738-2.368-.022-2.89-.026-2.42-.022z" fill="green" fill-opacity="1" stroke="#000" stroke-width=".125" stroke-miterlimit="4" stroke-dasharray="none" stroke-opacity="1"/><path class="state border IN" id="IN" d="M111.163 240.78l-.506.27-.713.184-.356-.089-.266-.294-.014 3.54-.008 1.955-.01 2.548-.253.205.073.312-.185.29.339.49.083.683-.28.366-.086.435-.317.192-.234.548-.262-.016-.128.29.16.164-.262.203-.021.627-.201.023.18.3.258.08.172-.478.244.164.336-.066.196.135-.016-.385.16.201.332-.106.71.322.128.19.204-.336.61-.336.208.298.56-.08.034-.297.227-.231.427-.169.02.235.61.327.37-.306.064-.453.204-.284.41-.067.124-.4.518-.352-.07-.618.537-.047.193.155.508-.256.488-.059.097-.342-.254-.088.146-.588.026-2.982.021-2.469.015-1.938-.015-1.383v-.211l-3.978-.004-1.557-.001z" fill="green" fill-opacity="1" stroke="#000" stroke-width=".125" stroke-miterlimit="4" stroke-dasharray="none" stroke-opacity="1"/><path class="state border IA" id="IA" d="M100.843 238.174l.484.473.164.454.634.447.08.297-.166.75-.282.224-.112.492-.257.213-.441.113-.275.203-.78.06-.172.175-.075.66.355.39-.04.44-.346.417-.256.578-.53.184.001.696-.16.045-.653-.579-.133-.23-.579.045-3.128.082-1.268-.014-2.49.043-3.504-.094-.276-.435.113-.221-.131-1.27-.13-.138.147-.346-.24-.101.074-.433-.411-.292-.052-.48.1-.367-.187-.241-.057-.42-.288-.243-.248-.512-.138-.568.013-.444-.232-.075-.11-.457-.312-.356.203-.328.293-.973-.069-.335-.227-.024.078-.573-.162-.4.385-.004h1.768l2.65-.001h2.652l2.65-.001h2.652l1.767-.001.144.478.305.303-.225.422.1.876.232.593.215.141.716.162z" fill="green" fill-opacity="1" stroke="#000" stroke-width=".125" stroke-miterlimit="4" stroke-dasharray="none" stroke-opacity="1"/><path class="state border KS" id="KS" d="M90.038 256.615H69.872l-.013-3.954-.012-3.709-.007-2.191h18.297l.344.314.334.137.325-.12.18.27-.024.305-.191-.042-.374.707.541.483.19.557.59.214-.014 2.467v1.669z" fill="green" fill-opacity="1" stroke="#000" stroke-width=".125" stroke-miterlimit="4" stroke-dasharray="none" stroke-opacity="1"/><path class="state border KY" id="KY" d="M122.722 252.004l.059.36-.173.513.45.603.18.472.28.437.49.406.41.08-1.05.842-.763.37-.257.405-.347.213-.08.25-.539.191-.149.272-1.44.467-.171.059-3.78-.125-.83.02-1.739-.051-1.08-.09-1.68.035-2.04.024-.635-.146.066.612-3.754-.001.178-.445.286.22.307-.53.046-.787-.15-.266.367-.471.372-.038 1.148.477.137-.31-.189-.318.105-.458.929-.213.109-.146-.219-.39.321-.542.257.08.171-.477.246.165.336-.067.196.136-.016-.385.159.2.332-.107.711.324.128.19.204-.336.609-.337.208.298.56-.08.034-.296.228-.232.426-.169.02.235.61.328.37-.307.064-.452.205-.285.41-.067.123-.401.518-.35-.07-.618.537-.048.194.156.506-.257.49-.058.096-.342-.254-.088.146-.588.279-.15.227.216.525-.08.332.238.343.724.896.16.412.406.49-.226.45.156.172.192.466-.087.279-.29.393-.095.162.522.35.167z" fill="green" fill-opacity="1" stroke="#000" stroke-width=".125" stroke-miterlimit="4" stroke-dasharray="none" stroke-opacity="1"/><path class="state border LA" id="LA" d="M97.69 279.72l-.594-.232.248-.232.568.193zm7.01-1.726l-.335.02.375-.238zm-.826-.356l-.496.052-.117-.184-.591-.082-.243-.285-.446-.08-.496.498-.076.228.255.23.464.123.357-.047.426-.34.249.166.405-.124-.243.345-.194-.08-.03.31.28-.028.241.227.132-.322.25-.272.252.064-.186.244.335.286-.223.342-.117-.192-.4.334.181.163-.448-.143.224.244-.279-.038.147.35.393.153-.057.182.565.051.25.22.116-.109.46.402-.32.496-.264-.17-.343.465-.091-.064.327-.435-.263.087-.305-.417-.344-.164-.531-.091.185-.225-.429-.25-.172.011-.573-.313-.074.12.379.233.088.356-.157.163.12.16-.217.287-.267.133-.158-.436-.197-.202-.092.178-.087-.316-.156.175-.325-.049-.103.492-.178.062-.38-.185-.103.143-.4-.267-.132.084-.675-.292.222-.245.362.316-.023-.198-.267-.196-.13-.27-.724-.112-.095-.334-.204.006-.11-.32-.472.101.03-.332-.373-.002-.408.284-.184-.083.258.425-.46.256-1.104-.207-.934-.381-.47-.118-.689.007-.777.098-.25.11-.155-.317.29-.147-.045-.382.22-.28.006-.616-.102-.315.126-.184-.066-.331.119-.104.307-.655.16-.666-.443-.868.062-.119-.467-.655.034-.378-.244-.514-.378-.349.006-3.086 2.429-.002 3.401-.004 1.981-.004.257.28-.232.466.194.247-.194.029.164.382.011.318.48.338-.315.584-.147-.005-.014.41-.451.4-.213.072-.185.362-.086.498-.253.22.09.268-.123.388-.29.033.186.646-.212.168h5.223l-.302.951.127.349.331.325.112.46z" fill="green" fill-opacity="1" stroke="#000" stroke-width=".125" stroke-miterlimit="4" stroke-dasharray="none" stroke-opacity="1"/><path class="state border ME" id="ME" d="M160.171 232.789l-.256-.274.35.115zm.524-.668l-.184.256-.023-.385zm1.13-.304l-.347.297-.295-.266.16-.374.277-.126zm2.778-3.147l.37.747-.053.275.223.297-.595.62-.48-.15-.025.224-.335.051-.173.256-.217-.108-.177.244-.071-.315-.263.038-.271.609-.336.289-.139-.546-.87-.024-.387.273.09.623-.714-.473.167-.605-.16-.083-.12.384-.383.117.133.32-.41.702.034.3-.51.438-.287-.152.014-.314-.404.805-.198-.405-.147.37-.047-.587-.278.438.148.158-.335.512-.13-.413-.317.316.113-.44-.429.151-.354.38.093.493-.411.121-.017.29-.595.601-.214.638-.228.036-.22-.273.022-.277-.423-.506.04-.634-.218-3.938-.127-2.332.362-.101.122.313.194-.232.404-.963.76-.584-.028-.23.419-.6-.131-.426.183-.257-.1-.263.251-.545.31-.227.18-1.064 2.012-2.776.58.082-.026.484.428.38.712-.208.284-.207.418-.007.103-.215.41.065.637.544.428.612.056 4.015-.043.96.38.23.572.097-.118.432.175.389-.125.382.323.425z" fill="green" fill-opacity="1" stroke="#000" stroke-width=".125" stroke-miterlimit="4" stroke-dasharray="none" stroke-opacity="1"/><path class="state border MD" id="MD" d="M141.202 247.694l.257 4.176 1.657.022-.19.697-.241.045-.366.692-.67.068-.065.094-.376-.034-.195.146.034-.497.179-.234-.366.011.26-.268-.594-.248-.002.252-.421-.492-.077.128-.266-.427.373-.226-.283-.066.023-.203.722.194-.256-.397-.252.037-.302-.284.137-.257.235.272-.041-.296.223-.104-.383-.242-.222.115.037-.373.269.182.41-.569-.299.073-.183.3-.082-.39.266-.547.382-.255.27-.703-.402.154.049.29-.394.353-.118-.297-.084.477-.142-.195-.18.47-.312.169.293.46-.135.415-.212.068.07 1.198.353.47-.102.206-.59-.5.859 1.099-.01.31-.649-.506-.75-.192-.365-.285-.158-.45-.468.384-.172-.425.224-.364.407-.34.032-.312.309-.298-.36-.34-.212.205-.414-.376-.406-.088-.253-.26.13-.302-.249-.183-.479-.106-.097-.569-.243-.045.035-.32-.332.033-.445-.333-.4.22-.417.038-.096.302-.582-.042-.26-.302-.517.621-.26-.106-.634.597-.516.308.029-1.704h5.33l3.136.001z" fill="green" fill-opacity="1" stroke="#000" stroke-width=".125" stroke-miterlimit="4" stroke-dasharray="none" stroke-opacity="1"/><path class="state border MA" id="MA" d="M154.717 236.896l.107.564.484.286-.764.338-.436.8.226.224.154-.26.496.37.184.507-.18.217.405.163.089.48.701.349.689-.261.094-.424-.223.07-.084-.498.32.29.13.555-.12.382-1.223.172-.206.234-.493.113.074-.657-.167-.083-.148.344-.356.021-.054.307-.534.13-.026-.51-.17-.053-.117-.113-.282-.3-.126-.757-1.124.017-.002-.037-2.734-.04-1.828-.074-.073-.085.657-2.32 2.17.058 3.154.099.42-.381.614-.27z" fill="green" fill-opacity="1" stroke="#000" stroke-width=".125" stroke-miterlimit="4" stroke-dasharray="none" stroke-opacity="1"/><path id="MI" class="state border MI" d="M107.877 220.087l-.626.178-.403.246-.473.508-.038.325.532.158-.153.213.152.234.494-.737.797-.634-.22-.107.857-.128-.286-.254-.632-.001zm-1.584.938l-.682.461-.222.362-.441.05-.725.534-1.079.127-.72.562-.953.362.49.28.303.626 2.716.716.764.417.817.034.949.248.275.338.038.296.442.1.292.27-.026.743-.126.466.444-.11.112.133-.199.615.2.226.16.042.093-.298.586-.847.465-.903.214-.115.259-.772.032.696.355-.039.211-.493.277.085.292-.186.01.42-.17-.023-.228.41.245.026.266-.351.41-.165.33-.547.47-.07.435.162.06-.17.64-.032.315-.42.56-.042.866.312.652.601.337-.717.817.24.907.102.358-.176-.432-.303.048-.17-.035-.054-.58-.219.216-.145-.124-.385.263.084-.085-.375.131-.348-.85.056-.24.074.049.043-.207.213-.236-.294-.485.158-.599-.273.216-.94-.608.032-.874.343-1.025-.102-.67.076-.931.514-.289.329-.176.103-.274-.237-.331.154-.24-.3-.695.142-.332-.053-.764-1.17-.454-.27-.726-.114-.367.073-.267.29.169-.411-.607.552-.067-.193.114-.501-.182-.45-.345-.189-.002-.326zm5.408 2.521l-.083.343.196.009zm5.084 2.846l-.132.128-.465-.024.132.127-.371.39-.06.383.226.322.298.06-.202.147-.513.021-.435.223-.176.324.058.46-.126.62-.3.566-.09-.042.231-.668-.106-.102-.24.766-.134-.244.217-.752-.065-.3.172-.254-.277.1-.558.86-.243-.123-.379.243-.073.614-.451.213.096.372-.092.758-.393.765-.288.28.178.447.03.617-.274.56.87 2.342.01.894-.148.828-.287.753-.309.438-.445.875-.394.34-.114.061 1.557.001 3.979.004v.212l1.366-.036 2.308-.092.09-.263.541-.637.205-.826.175-.264.1-.063.013-.016.049-.023.36-.226.071-.536.245-.147-.113-.184.299-.174.2.072-.036.418.03.04.332-.337.071-.601.177-.716-.15-.28-.282-1.505-.157-1.007-.143-.39-.331-.375-.304-.157-.259.043-.184.157h-.002l-.417.09-.26.312-.42.706-.128-.083-.384.421-.612-.263-.107-.163.049-.544.168-.39.455-.052.282-.207.162-.729.555-.364.038-.924.075-.286-.15-.686-.32-.384.07-.243.327-.018-.022-.334-.237-.277.07-.152-.345-.29-.906-.303-.27-.219-.416-.011-.347-.507-.637-.105-.859-.475zm4.65 12.49l-.037.015-.008.044.044-.059z" fill="green" fill-opacity="1" stroke="#000" stroke-width=".125" stroke-miterlimit="4" stroke-dasharray="none" stroke-opacity="1"/><path class="state border MN" id="MN" d="M88.562 212.786l-.044 1.481h-5.567l.339 1.336-.152.451.093.41-.019.996.376 1.365.264.52.113.728.067 1.839.187.306-.096 1.045.234.78.29.41.122.82.002.596-.222.657-.567.444-.044.155.474.703.332.057.305.354.002 2.535v3.927h1.767l2.65-.001h5.302l2.652-.001h1.767l.003-.952-.125-.535-.356-.37-.643-.18-.473-.388-.308-.553-.414-.363-.462-.105-.33-.41-.519-.102-.638-.542.167-.608-.12-.554.128-.104.012-.704.226-.534-.226-.417-.359-.061.003-.515.484-.726.926-.423.191-.207.003-2.147.495-.408.096.036-.057-.168.806-.55.781-.648 1.355-1.406.6-.469.703-.364 1.216-.382.93-.457.29-.26.006-.003-.94-.042-.252-.35-.288-.058-.959.122-.692-.06-.147-.462-.224-.027-.96.625-.413.11-.717-.236-.198-.346-.523-.158-.234-.41-.705.091-.22.303-.389-.823h-.48l.15-.352-.9-.316-.755-.05-.526.128-.11.214-.72.1-.321-.464-.97-.062-.216-.241-.765-.05-.32-.315-.002-.417-.27-.988-.045-.498-.421-.25-.485-.051z" fill="green" fill-opacity="1" stroke="#000" stroke-width=".125" stroke-miterlimit="4" stroke-dasharray="none" stroke-opacity="1"/><path class="state border MS" id="MS" d="M107.534 262.974l.247.282-.222 1.948-.377 3.246-.192 1.635-.29 2.464.1 1.981.127 2.528-.185.19-.349-.212-.39.122-.318-.16-1.035.26-.221-.18-.024.233-.339.36-.192-.033-.3-.326-.112-.46-.331-.325-.127-.349.301-.95h-5.223l.213-.168-.187-.647.29-.033.124-.387-.09-.27.253-.218.085-.499.185-.362.214-.071.451-.401.014-.41.147.005.314-.584-.48-.338-.01-.318-.164-.382.193-.029-.193-.247.232-.466-.257-.28.014-.32.169-.095-.023-.363-.202-.16.149-.486-.294-.274.227-.205-.201-.175.49-.385.027-.359-.133-.205.476-.12.073-.199-.2-.179.492-.38.043-.315.449-.138v-.678l.11-.305.268-.06-.025-.215.522-.298-.088-.242 2.826.004z" fill="green" fill-opacity="1" stroke="#000" stroke-width=".125" stroke-miterlimit="4" stroke-dasharray="none" stroke-opacity="1"/><path class="state border MO" id="MO" d="M98.668 245.485l-.209.689.189 1.038.256.518.681.592.146.27.628.439.244.396.074.68.319.388.427-.296.665.28.153.173-.192.284.004.35-.504 1.108.097.305.64.622.51.209.546.376.204.337.265.116.06.44.207.394-.196.557.37.57.304.293-.073-.26.485.327-.046.787-.307.53-.286-.22-.179.444-.19-.008-.177.004.079.373-.266.134.122.277-.302.024.22.336-.299.449-1.765.045.228-.425.603-.533.013-.26-.27-.419H90.038v-6.166l.015-2.466-.59-.214-.19-.557-.541-.483.374-.707.191.042.023-.306-.179-.27-.325.121-.334-.137-.344-.314-.277-.151.042-.232-.612-.778-.182-.584-.195-.278 3.504.093 2.49-.042 1.269.014 3.127-.082.58-.045.132.23z" fill="green" fill-opacity="1" stroke="#000" stroke-width=".125" stroke-miterlimit="4" stroke-dasharray="none" stroke-opacity="1"/><path class="state border MT" id="MT" d="M64.415 214.267l.004 3.972v3.177l.004 4.452.015 3.452H45.387l-.002 1.817-.431-.348-.266-.499-.39.038-.135.512-.81.186-.192-.122-.575.086-.413-.109-.343.351-.87-.123-.447.453-.399-.289-.146-.693-.376-.55-.382.044-.428-.513.14-.245-.226-.448-.538-.659-.212-1.022-.457-.4-.426.45-.585.319-.575-.315.129-.5-.153-.288.437-.415-.197-.387.02-.999.309-.972-.052-.55-.563.126-.342-.395-.578-.346-.032-.285-.97-1.034-.183-.29-.458-.167-.563-.47.202-.188-.245-.285.154-.166-.115-.364-.897-1.164.002-3.835h28.639z" fill="#ccc" fill-opacity="1" stroke="#000" stroke-width=".125" stroke-miterlimit="4" stroke-dasharray="none" stroke-opacity="1"/><path class="state border NE" id="NE" d="M84.971 238.151l.232.076-.013.444.138.567.247.513.288.242.058.42.187.242-.1.366.051.481.411.291-.073.434.24.101-.147.346.13.138.13 1.27-.112.221.276.435.194.278.183.584.612.778-.043.232.278.151H69.84l-.001-3.377h-3.412l-2.028-.001.003-3.865-.002-3.054h15.13l1.105.694.341.065.31-.307.419.066 1.042-.12.472.342.735.173.402.219.265.5z" fill="green" fill-opacity="1" stroke="#000" stroke-width=".125" stroke-miterlimit="4" stroke-dasharray="none" stroke-opacity="1"/><path class="state border NV" id="NV" d="M37.263 256.604l-.004 2.508-.223.554-.298.068-.31-.367-.563-.066-.452.216-.05.34.198.354-.054.49.113.28-.061.36.208.517.05.51-.171.17.02.419-1.537-1.367-2.673-2.448-1.31-1.208-1.992-1.77-1.993-1.784-1.91-1.598-1.272-1.072-1.91-1.616v-4.513l-.001-3.736v-1.892h8.108l3.536-.001h1.515l3.03-.001v1.614l.002 3.193.001 2.104v2.603l.002 3.086z" fill="green" fill-opacity="1" stroke="#000" stroke-width=".125" stroke-miterlimit="4" stroke-dasharray="none" stroke-opacity="1"/><path class="state border NH" id="NH" d="M154.908 236.17l.094.066-.285.66-.302-.032-.614.269-.42.38-3.154-.099-.24-.52.203-.39.127-.965.082-.131.015-.818.25-.67.251-.23.447-1.278.019-.498.16-.207.388-.064.441-.32.348-.541-.23-.52.326-.561.024-.431.466-1.002.524.133.154-.19.127 2.332.218 3.938-.04.634.423.506-.022.276z" fill="green" fill-opacity="1" stroke="#000" stroke-width=".125" stroke-miterlimit="4" stroke-dasharray="none" stroke-opacity="1"/><path class="state border NJ" id="NJ" d="M143.28 246.707l.801-.494-.668-.846-.244-.134-.066-.352-.254-.04-.018-.638.227-.126.12-.326-.213-.308.688-.678.113-.315.396-.284 2.152 1.247-.34.94-.482.27-.199.464.233.19.554.13.056.253-.327 1.85.08-.852-.11.056-.173 1.054-.818 1 .15.14-.671.225h.298l-.428.635-.454.507-.251.03.218-.699-.415-.224-.289.09-.28-.364-.298-.136-.468-.466-.07-.477.318-.52.351-.222.453-.106z" fill="green" fill-opacity="1" stroke="#000" stroke-width=".125" stroke-miterlimit="4" stroke-dasharray="none" stroke-opacity="1"/><path class="state border NM" id="NM" d="M67.261 258.217l-.114.002-.015 3.686-.008 1.745-.012 2.597-.014 2.998-.014 2.964H64.67l-2.415.002h-3.018l-1.926.002.192.524.232.172-1.76-.015-2.883-.008v1.358H50.83v-6.484l.002-3.293v-7.854H67.26z" fill="green" fill-opacity="1" stroke="#000" stroke-width=".125" stroke-miterlimit="4" stroke-dasharray="none" stroke-opacity="1"/><path class="state border NY" id="NY" d="M143.702 229.283l-1.092.53-1.168 1.022-.275.37.055.168-.742.6-.824.48.19.337.211-.172.225.095-.216.268.324.048-.35.393-.236.006.253.432.058.535-.158.171-.47.016-.675.469-.121.221-.736.193-1.042-.047-.465.143-.573-.309-.972-.175-.743-.007-.84.123-.82.262-.197.039.026.056.043.614.335.033.072.088-.13.253.04.1.016.012-.006.011.137.347-.132.309-.314.15-.323.467-.592.317-.28.288-.763.47-.03.012v.931l2.317.001 2.218.001 4.065.003 3.421.003.243.397.464.187.04.732.18.35.303.224.372.047.137.269 2.151 1.246-.028-.587.123.442-.148.778.352-.029.09-.329.33-.309-.218-.35.65-.389-.165-.263.173-2.614-.071-.085.657-2.319.05-2.841-.15-.255-.33.104.15-.544-.192-1.088.297-.651.094-.844-.195-.377.078-.821-.102-.156.065-.582-3.699.02-.422-.04zm-2.842 2.274l-.373.148.08.14zm-8.417 4.678l.075.278.018.013.176-.19zm18.12 6.667l-.714.514-.476.085-1.01.009-.195.185-.71-.128-.4.157-.396.365-.353.011-.345.51.13.234.477-.05 1.196-.265.377-.177.963-.105.413-.211.208.036.663-.22 1.492-.713-.274.006-.409.233-.606-.1-.341.41-.455.009.636-.421-.06-.114.45-.24zm-4.967 1.691l-.195.488.382-.187.076-.27z" opacity="1" fill="green" fill-opacity="1" stroke="#000" stroke-width=".125" stroke-miterlimit="4" stroke-dasharray="none" stroke-opacity="1"/><path class="state border NC" id="NC" d="M138.775 263.891l-1.013.095.872-.134zm2.87-3.54l-.284-.347.187.046zm-.694-2.29h.075l.181.853.196.485.409.744-.434-.519zm-.234-.001h.157l.021.171-.304-.173zm-.177-.001l-.014.158.426.639.258.697-.143-.051-.263-.606.073.392-.306-.085-.494-.35.394.423-.375.207-.652-.195.336.219-.578.263-.442-.136-.152-.558-.039.332.17.428-.096.15.467.022.231-.108.452.046.303-.113.4.03-.102.383.149.672.11-.747.373-.295.356.478-.051.59-.267.235-.128-.217-.486.799-.553.113-.364-.351-.109.175-.36-.295.305-.137-.332-.027-.04.487-.431-.075-.64-.246.815.452.535.132.012.257-.496.187.312.145-.554.425-.203-.01-.653-.517.378.556.484.211.325-.223.279.162.234-.444.038.423.462-.106-.688.753-.253-.263-.233.283-.528-.042-.654.177-.543.379-.294-.177.18.283-.427.183-.36.287-.447.526-.213.772-.029-.466-.137.484-.164.187-.598-.102-.871.132-1.78-1.72-1.155-1.122-.137-.032-2.914-.062-.046-.426-.364-.46-.273.147-.125-.292-1.878-.092-1.722-.102-.12.125-.633.153-1.194.4-3.287.041.066-.695.106-.149.451-.007.228-.525.644-.415.748-.044.677-.452.474-.242.252.004.205-.5.264.04.109-.213.381-.182.125.282.257-.08.257-.324.518-.204.32.189.44-.616.493-.304.228-.704 1.173.127 1.495.024 1.596.072 1.616-.005 2.653-.003 3.359-.015z" fill="green" fill-opacity="1" stroke="#000" stroke-width=".125" stroke-miterlimit="4" stroke-dasharray="none" stroke-opacity="1"/><path class="state border ND" id="ND" d="M82.952 214.267l.34 1.335-.153.453.093.409-.018.996.374 1.365.265.52.113.727.067 1.84.187.306-.096 1.046.233.779.292.409.121.82.001.597H73.377l-4.43-.001h-4.523l-.005-4.452v-3.177l-.004-3.972h14.547z" fill="green" fill-opacity="1" stroke="#000" stroke-width=".125" stroke-miterlimit="4" stroke-dasharray="none" stroke-opacity="1"/><path class="state border OH" id="OH" d="M128.345 240l-.95.319-1.3.566-.881.712-.558.11-.444-.071-1.26.395-.303-.201-.577-.056-.264.13-.09-.193.708-.097-.353-.237-.154.171-.364-.059-.209-.227-.334-.09-.262-.216-.392-.043.015-.044-2.308.092-1.366.036.015 1.383-.015 1.939-.022 2.468-.026 2.982.278-.15.229.216.524-.08.332.238.343.724.896.16.412.406.49-.226.45.157.172.191.466-.086.28-.29.392-.095.162.522.349.167.296.38.7-.078.186-.507.233-.045-.085-.574.409-.718.365.082.06.344.182-.247.193.04-.15-.46.176-.096.196-.55.275-.014.278-.417.245.128.44-.12.466-.438.488-.33.012-.475.306-.53.053-.44.337-.76.037-.624-.205-.397.425-.195V240z" opacity="1" fill="green" fill-opacity="1" stroke="#000" stroke-width=".125" stroke-miterlimit="4" stroke-dasharray="none" stroke-opacity="1"/><path class="state border OK" id="OK" d="M90.037 258.219l.487 3.534-.092 4.078-.03 1.345-.609-.136-.448-.199-.295-.327-.65-.313-.37.293-.524-.085-.132-.174-.473.279-.45-.105-.955.41-.107.19-.222-.262h-.234l-.415-.4-.116.19-.444-.063-.16-.252-.437.292-.101.42-.24-.188-.03-.382-.435.247-.541-.212-.087-.248-.21-.014-.327.296-.43-.016.008-.317-.36-.1-.007-.343-.755.002-.332.193-.228-.237-.395.047-.632-.233-.653-.064.003-.28-.2-.278-.331-.125-.038.203-.397-.081-.363.055-.546-.53-.319-.033-.004-2.674-.005-3.404h-8.145l-.002-1.603h22.778z" fill="#ccc" fill-opacity="1" stroke="#000" stroke-width=".125" stroke-miterlimit="4" stroke-dasharray="none" stroke-opacity="1"/><path class="state border OR" id="OR" d="M12.428 224.99l.186-.027.548.29.281.481.184 1.163 1.299.355.788-.28.484-.29.605-.03.81.076.27.283.74-.037.76-.327.41.076.652-.1.803-.371.738-.125.193-.182 1.354-.102.247-.188 2.95-.004 2.82-.004.325.604.623.319.182.624-.505.858-.186.716-.288.421-.026.421-.483.616-.276.64-.249.325.024.665.602.105.208.296-.195.366.094.197-.234.868.005 3.03.005 3.234H9.618l-.394-.393-.2-.75.105-.827-.055-.335-.247-.259-.115-.381.28-.648.185-1.093.14-.079.237-.653.236-1.19.102-1.502.177-1.192-.046-.69.285-1.734-.112-.138.292-.53-.173-.343.044-.555-.11-.15.13-.782-.152-.818.607-.014.108.125.565-.24.363.33.414.034z" fill="green" fill-opacity="1" stroke="#000" stroke-width=".125" stroke-miterlimit="4" stroke-dasharray="none" stroke-opacity="1"/><path class="state border PA" id="PA" d="M130.401 239.02l-.342.135-1.322.715-.392.13v4.582l.002 3.112H141.2l.51-.389.48.105.752-.322.338-.381.801-.493-.669-.847-.243-.134-.067-.352-.254-.04-.018-.639.227-.125.12-.326-.213-.308.689-.677.112-.315.397-.285-.137-.269-.372-.047-.303-.224-.18-.35-.04-.732-.464-.187-.243-.396-3.421-.003-4.066-.003-2.218-.001-2.317-.001v-.932z" fill="green" fill-opacity="1" stroke="#000" stroke-width=".125" stroke-miterlimit="4" stroke-dasharray="none" stroke-opacity="1"/><path class="state border RI" id="RI" d="M153.566 241.672l-.294.156.341-.706zm.315-.043l-.217.035.022-.599.17.055zm-.312-.676l-.064.201-.29-.25-.205.513.045.363-.195.351-.95.19.14-.713-.013-1.695 1.124-.017.126.756z" fill="green" fill-opacity="1" stroke="#000" stroke-width=".125" stroke-miterlimit="4" stroke-dasharray="none" stroke-opacity="1"/><path class="state border SC" id="SC" d="M133.635 266.45v.107l-.517.214-.474.422-.53.693-.135.541-.31-.235.308.412-.837.59-.078-.153-.28.263.093.127-.423.35-.29.125-.251-.284.002.273.195.165-.338.272-.417.115-.495.29-.548-.1-.394.023.543.125-.297.041.428.144-.111.265-.451.17-.333-.286-.26-.544.152.669.33.319-.578.552-.51-.165-.213-.324.067-.387-.188-.497-.557-.426.01-.368-.267-.571-.046-.33-.658-.358-.047-.19-.419-.44-.019-.354-.695-.49-.14-.357-.883-.673-.079-.24-.367-.432-.073-.336-.26-.523-.517-.112-.329-.364-.508-.297.128-.35.526-.565 1.193-.399.632-.153.122-.125 1.721.102 1.878.093.125.291.273-.147.365.46.045.426 2.914.062.137.032 1.154 1.121z" fill="green" fill-opacity="1" stroke="#000" stroke-width=".125" stroke-miterlimit="4" stroke-dasharray="none" stroke-opacity="1"/><path class="state border SD" id="SD" d="M84.77 225.869l-.22.657-.568.444-.045.155.476.703.33.057.307.354v6.462l-.385.004.162.4-.079.573.228.025.07.334-.294.974-.203.327.312.357.11.456-.35-.056-.265-.5-.402-.219-.735-.173-.472-.342-1.042.12-.419-.065-.31.306-.341-.064-1.105-.694H64.4l-.006-3.096-.004-4.049h.048l-.016-3.451h17.816z" fill="#ccc" fill-opacity="1" stroke="#000" stroke-width=".125" stroke-miterlimit="4" stroke-dasharray="none" stroke-opacity="1"/><path class="state border TN" id="TN" d="M119.793 257.885l2.264.011 2.395.012.798-.04-.228.704-.492.304-.442.615-.319-.188-.518.204-.257.324-.257.08-.125-.282-.381.182-.109.212-.265-.04-.204.5-.252-.003-.474.242-.677.452-.748.044-.644.415-.228.525-.451.007-.106.149-.066.695-3.481.006-3.045-.014-2.141-.05-1.824-.013.018.037-2.95-.004-2.825-.004.344-.407.194.02.008-.825.247-.397.257-.115-.055-.596.587-.307-.169-.14.299-.06-.135-.33.299-.45-.22-.334.302-.025-.122-.277.266-.134-.08-.373.178-.004.19.008 3.755.001-.066-.611.635.145 2.04-.023 1.68-.035 1.08.09 1.74.05.829-.02 3.78.126z" fill="green" fill-opacity="1" stroke="#000" stroke-width=".125" stroke-miterlimit="4" stroke-dasharray="none" stroke-opacity="1"/><path class="state border TX" id="TX" d="M83.121 289.53l-.067-.102-.196-.913-.373-1.044-.02-.848.057-.181.02.74.091.503.284.894zm-.04-4.434l-.386.855-.085.354-.125.019.074-.346.307-.708.55-.673zm.406-.635l.153-.403.285-.365.048.187zm1.69-1.378l-.804.464-.353.282.068-.288.265-.075.53-.36zm4.327-2.959l.245.059-1.066.719.471-.394zm.897-12.948l.425.276.366-.11.396.122.017 1.67-.006 3.086.378.348.244.514-.034.378.467.656-.062.12.443.866-.16.666-.308.655-.118.105.065.33-.125.185.101.314-.005.617-.221.28-.151-.003-.214.623.155.3-.5-.02-1.616.679.253-.363-.527.149.14-.672-.28-.09-.188.343-.48-.248.182.221-.104.393.315.136-.155.078.207.277-.48.506-.265.01.011.456-.599.485-.604.342-.952.22.135.208-.337-.097-.527.041.088-.158-.429.163-.193-.277-.076.388-.56-.388.115.442.24.087.317.334-.68.337-.379-.468.03.695-.442.336-.204-.24-.536.39.238.17.296-.244-.011.171-.432.596-.226-.124-.69.018.368.125.08.257.254.181-.404.998-.205-.19-.62.385.527.102.22-.116-.11.723-.19.037-.012.53.18.144.173.69-.062.33.26.19.113.661.268.092-.066.306.229-.26.034.312-.345.015-.432.302-.536-.44-.487-.157-1.143-.033-.399-.34-.577-.195-.16.059-.422-.363-.787-.113-.08-.338-.136-.043-.226-.825-.58-.662.08-.435-.242-.3.131-.334-.093-.426-.253-.21-.3-.07-.261-.293-.196-.38-.266-.263-.267-.472-.333-.153-.236-.261-.306-.866-.263-.338-.068-.283-.286-.352-.122-.562-.254-.17-.145-.286-.544-.351-.059-.207-.745-.406-.253-.535-.317.037-.067-.16-.233.131-1.296-.078-.576-.272-.23.346-.297-.022-.458.121-.26.448-.326.933.11.138-.668.504-.118.214-.444-.12-.165.007-.46-.368-.358-.073-.329-.306-.715-.181-.57-.554-.222-.032-.494-.385-.107-.354-.3-.46-.003-.743-.466-.653-.091-.416-.331-.374-.6-.398-.366-.12-.522-.456-.095-.207-.481-.326-.643-.652-.434-.153-.331-.4-.196-.414-.401-.16-.233-.171-.192-.524 1.926-.001 3.018-.001 2.415-.002h2.414l.014-2.965.014-2.998.012-2.597.009-1.745.015-3.686.113-.002h6.121l2.025.001.005 3.404.004 2.674.319.032.546.531.363-.055.397.081.037-.203.332.125.2.278-.003.28.653.063.632.233.395-.046.228.237.332-.193.755-.002.006.343.36.1-.008.317.43.016.328-.296.21.014.087.248.54.212.435-.247.03.382.24.187.101-.419.437-.292.16.252.445.062.116-.19.415.4h.234l.222.262.107-.189.955-.41.45.105.473-.28.131.175.524.085.372-.293.648.313.296.327.448.2z" fill="green" fill-opacity="1" stroke="#000" stroke-width=".125" stroke-miterlimit="4" stroke-dasharray="none" stroke-opacity="1"/><path class="state border UT" id="UT" d="M45.389 239.953v3.43h5.445v13.233h-2.12l-3.817-.004-3.392-.003-2.544-.002h-1.696l-.002-4.054-.001-3.086-.001-2.603-.001-2.104-.001-3.193v-1.614h4.572z" stroke-miterlimit="4" fill="green" fill-opacity="1" stroke="#000" stroke-width=".125" stroke-dasharray="none" stroke-opacity="1"/><path class="state border VT" id="VT" d="M150.227 237.415l-2.17-.058.05-2.84-.148-.255-.332.104.15-.544-.19-1.088.296-.652.095-.844-.196-.376.078-.82-.102-.156.066-.583 2.851-.019 2.163-.014-.024.431-.327.56.231.52-.347.542-.442.32-.388.065-.16.206-.02.498-.445 1.279-.253.23-.249.67-.015.817-.082.13-.127.965-.204.39z" fill="green" fill-opacity="1" stroke="#000" stroke-width=".125" stroke-miterlimit="4" stroke-dasharray="none" stroke-opacity="1"/><path class="state border WV" id="WV" d="M131.178 247.693l-.029 1.704.516-.309.634-.597.26.107.518-.621.259.301.582.043.096-.302.417-.038.4-.22.445.333.332-.034-.035.32.243.046.097.569-.274.62-1.322-1.019-.222.575-.027.37-.455.585-.44.197-.374.473-.292-.194-.265.386-.283.64-.292.358-.562-.177-.13-.292-.228-.08-.424 1.023-.338.33-.227.58-.562.609-.212.42.147.243-.173.328-.43.259-.204-.126-.553.27-.311-.13-.279.421-.75.163-.321-.29-.552.392-.269.01-.487-.248-.296-.301-.088-.515-.41-.08-.49-.406-.28-.437-.179-.472-.45-.604.172-.511-.06-.36.701-.08.187-.506.232-.047-.085-.574.409-.717.365.082.06.344.182-.248.193.04-.15-.46.175-.096.196-.549.276-.014.277-.416.246.127.439-.12.466-.438.49-.33.011-.475.305-.53.054-.44.338-.76.035-.623-.205-.397.426-.197.002 3.113z" fill="green" fill-opacity="1" stroke="#000" stroke-width=".125" stroke-miterlimit="4" stroke-dasharray="none" stroke-opacity="1"/><path class="state border WA" id="WA" d="M13.299 221.25l-.17-.193.205-.263zm1.188-.876l-.296.197.164-.528zm-.197-.733h-.225l.054-.429.127.069zm-.249-3.031l.188.374-.208-.054-.353.287.349.109.133.725.088-.284.455.54-.241.153-.344-.295-.166-.677-.348-.334.257-.522zm-.714-.274l-.24.012.165-.417zm-.388-.202l-.103.232-.338-.23.069-.415zm.365-.758l.304.172-.51.279-.252-.17zm.285-1.109h15.528l-.013 3.639.004 3.668-.007 2.674.367.726-.14.291.222.383-2.82.004-2.95.004-.247.187-1.354.103-.192.182-.739.125-.803.371-.653.1-.41-.077-.758.328-.742.037-.268-.284-.811-.076-.605.03-.484.29-.788.28-1.299-.355-.183-1.162-.282-.48-.548-.292-.186.027-.32.103-.492-.462-.337.059-.244-.168-.49.242-.518-.432.003-1.115.122.323.01.685.153.025.171-.838-.014-.542-.197.173-.328-.157-.1-.536.862-.275-.543-.093-.432-.22-.109-.697-.288-.495-.09-.72-.195-.744-.585-.636-.262-1.008.198-.576-.18-.264.416.067.477.297.466.136.482.313 2.183.239.263-.238.416.533.35-.31.207.14.45.742-.55.789.063-.613-.284.74-.301.321-.381.794.576-.914.504-.274.35-.652.186.02-.127-.427.231.155.162.57-.197.052-.149.194.01.362.229.292-.212.7.047.273-.427-.284-.128.628-.199-.54-.202.143-.296.592.577-.167.257.289.41-.454.092-.403.243.18.334-.465-.228-.7.008-.774.233-.629.293-.172-.346-.396-.26-.557-.147.401-.12-.46.387-.231-.387-.251-.137-.245-.17.132-.157-.32.195-.116.36.256.163-.506-.159-.618-.41-.094-.43-.667z" opacity="1" fill="green" fill-opacity="1" stroke="#000" stroke-width=".125" stroke-miterlimit="4" stroke-dasharray="none" stroke-opacity="1"/><path class="state border VA" id="VA" d="M141.583 253.487l.066-.093.669-.068-.108.42-.205.18-1.073 1.537-.132.717-.177-.192-.026-.394.132-.28.074-.561.315-.312.056-.402.282-.02zm-5.67-4.492l.478.106.25.183-.131.303.253.26.406.087.414.376.14.106.056.614-.495.194-.327.812.275.261.566-.216-.03.239.462.477.726.088.228.408.768.397-.199.908-.401-.274-.057.163-.377-.52-.229-.093-.568-.67-.002.234.561.627.28.158.247.405.256-.03.391.177-.296.089.404.3-.098.415-.112-.21-.329.046.175.322-.32.075-.774-.927.475.776.375.264.177-.064.303.334-.013.376-.361.12-.065-.174-.43-.287-.118-.37-.607-.112-.34-.175-.737.022.7.068.335.286.477.182.13-.113.028.457.24.05.37.417.32.047.132-.25.761.159.37 1.163h-.076l-.223-.513-.011.51h-.176l-3.4.01-3.358.015-2.653.003-1.615.005-1.597-.072-1.494-.023-1.173-.128-.798.04-2.396-.012-2.264-.01 1.44-.468.15-.272.538-.192.08-.25.348-.212.256-.405.764-.37 1.05-.842.088.515.296.301.487.25.268-.012.552-.39.322.288.75-.163.278-.42.311.13.553-.27.205.125.43-.258.172-.33-.147-.24.212-.422.563-.609.226-.579.338-.331.424-1.023.228.08.13.292.563.177.29-.358.284-.64.266-.386.292.194.373-.473.44-.196.455-.586.027-.37.222-.574 1.322 1.018z" stroke-miterlimit="4" fill="green" fill-opacity="1" stroke="#000" stroke-width=".125" stroke-dasharray="none" stroke-opacity="1"/><path class="state border WI" id="WI" d="M100.183 222.038l-.83.403-.017-.104-.594.357-1.028.33-.464.058-.258-.125-.043-.13-.096-.037-.494.409-.003 2.146-.191.207-.927.423-.483.726-.003.515.359.062.226.417-.226.533-.013.705-.127.103.12.554-.167.608.638.542.519.102.33.41.462.105.413.364.31.552.472.388.643.181.356.37.124.535-.003.951.145.478.305.303-.226.423.101.875.232.593.214.142.716.161.167.502 2.42.022 2.89.025 2.368.022.015-.564.075-.555-.32-.739.078-.258-.096-.603.27-.703.054-.41.237-.453-.064-.77.236-.624.385-.43-.148-.332.177-.768.325-.601.102-.401-.332-.3-.456.152-.406.68-.42.374-.3-.054.164-.624.405-.756.506-.212.115-.37-.161-.042-.2-.226.2-.615-.113-.132-.443.109.126-.466.026-.743-.292-.27-.443-.1-.038-.296-.275-.338-.948-.247-.817-.035-.765-.417-2.715-.716-.304-.627-.49-.278-.067.025-.366-.113-.453-.33-.122.218-.474.11.252-.35.025-.367.25-.371zm.772.351l-.482.282-.01.162.532-.343zm9.59 5.813l-.185.4-.261.079-.146.431-.32.49.089.28.21.089.334-.42.138-.483.2-.166.147-.398.033-.249z" fill="green" fill-opacity="1" stroke="#000" stroke-width=".125" stroke-miterlimit="4" stroke-dasharray="none" stroke-opacity="1"/><path class="state border WY" id="WY" d="M64.4 236.464l.002 3.054-.003 3.865h-19.01l-.001-3.431-.002-3.813v-2.208l-.001-2.794.001-1.817h19.005l.004 4.048z" fill="green" fill-opacity="1" stroke="#000" stroke-width=".125" stroke-miterlimit="4" stroke-dasharray="none" stroke-opacity="1"/><path class="state border" id="DC" d="M137.847 250.743l-.123-.327-.14-.106.211-.205.361.34z" fill="green" stroke="#000" stroke-width=".125" stroke-miterlimit="4" stroke-dasharray="none" stroke-opacity="1"/><path d="M69.872 256.615l-.033-13.232H50.833l-.001 13.232H67.26z" id="path4369" fill="green" stroke="#000" stroke-width=".125" stroke-linecap="butt" stroke-linejoin="miter" stroke-miterlimit="4" stroke-dasharray="none" stroke-opacity="1"/></g></svg>
